<?xml version="1.0" encoding="UTF-8"?>
<svg xmlns="http://www.w3.org/2000/svg" viewBox="0 0 494.6 770.11">
  <g id="a" data-name="Layer 14">
    <g>
      <circle cx="220" cy="550.11" r="212" style="fill: #fff; opacity: .69; stroke: #000; stroke-miterlimit: 10; stroke-width: 16px;"/>
      <path d="M15.64,494.71c7.07-4.69,17.11.13,21.86,7.07,4.75,6.94,6.3,15.49,10.21,22.92,3.91,7.42,11.97,14.13,20.25,12.04,9.29-2.35,12.34-13.44,14.43-22.59,4.59-20.05,12.41-39.4,23.08-57.1,3.26-5.41,7.52-11.17,13.87-12.16,11.75-1.84,18.24,12.74,20.24,24.2,8.64,49.65,12.5,100.09,11.52,150.44-.1,5.21-.19,10.7,2.38,15.26,2.57,4.57,8.82,7.6,13.41,4.95,3.5-2.03,4.69-6.34,5.57-10.22,8.73-38.47,17.45-76.94,26.18-115.41,13.54-.14,20.94,15.06,24.77,27.75,3.83,12.69,10.56,27.98,24.08,28.63,11.45.54,19.8-10.21,25.1-20.14,5.3-9.93,11.08-21.39,22.13-24.39,13.78-3.74,27.17,8.55,32.02,21.7,4.85,13.15,4.56,27.69,9.42,40.84,4.86,13.14,18.27,25.42,32.04,21.66,9.78-2.67,15.69-12.23,19.76-21.32,4.08-9.09,7.75-19.07,15.98-24.88s22.71-4.05,25.2,5.56" style="fill: #fff; stroke: #000; stroke-miterlimit: 10; stroke-width: 16px;"/>
    </g>
  </g>
  <g id="b" data-name="Layer 6 simplified">
    <path d="M483.02,407.93c17.75-4.19,13.32-12.42-1.29-7.4-20.46,6.8-29.14-16.48-52.07-10.26-7.99,1.53-13.16,8.71-16.48,16.14-22.22,49.77-40.23,104.1-80.64,140.68-24.23,21.93-54.59,35.56-83.43,50.94-17.59,7.75-18.68,25.76,2.46,28.04,14.56,1.5,29.68-3.89,40-14.27-3.79,1.83-2.43,8.26,1.42,9.95,11.8,2.91,22.6-9.4,28.81-18.17,4.51,6.22,14.4,6.07,20.77,1.76,12.85-8.73,14.24-28,27.4-36.43,6.45-4.1,14.47-4.56,21.97-6.03,21.45-4.23,40.79-18.17,51.59-37.19,13.39-23.28,5.82-57.07,7.36-81.9.86-18.26,15.12-29.82,32.14-35.85Z" style="fill: #29abe2;"/>
  </g>
  <g id="c" data-name="Layer 5 simplified">
    <path d="M252.9,316.32c-19.46,4.52-25.48,27.62-22.37,45.25,4.77,35.24,32.1,66.38,66.43,75.68-41.18,18.33-9.58,46.27,24.09,41.66,1.06,25.29,38.66,30.83,57.59,21.73,29.46-11.42,36.94-49.97,12.37-70.28-7.76-6.39-17.68-9.41-27.29-12.36-35.83-14.25-93.91-43.02-102.53-83.32-1.32-6.97-4.33-14.85-8.28-18.37Z" style="fill: lime; opacity: .74;"/>
  </g>
  <g id="d" data-name="Layer 5 simplified copy">
    <path d="M234.56,339.77c-18.37,7.85-20.26,31.65-14.12,48.46,10.86,33.87,43.2,59.75,78.63,62.91-37.35,25.24-1.35,47.23,31,36.81,5.46,24.72,43.46,23.6,60.5,11.34,27.01-16.4,27.64-55.66-.1-71.36-8.76-4.94-19.05-6.17-29.03-7.4-37.77-7.77-99.98-25.95-115.51-64.12-2.52-6.64-6.86-13.86-11.36-16.64Z" style="fill: #ff0; opacity: .74;"/>
  </g>
  <g id="e" data-name="Layer 2 simplified">
    <path d="M399.51,439.49c-34.99-8.2-71.84,61.31-24.26,67.57,31.93,2.11,48.39-49.9,24.26-67.57Z" style="fill: #e34529;"/>
  </g>
</svg>