<?xml version="1.0" encoding="UTF-8"?>
<svg xmlns="http://www.w3.org/2000/svg" viewBox="0 0 1956.22 1001.21">
  <g id="a" data-name="Layer 1">
    <path d="M1955.97,498.19v502.77H.37V444.96h.22c-.11-1.24-.22-2.47-.22-2.47-2.24-24.29,26.83-41.85,51.68-39.35,24.85,2.49,46.01,17.83,67.41,30.43,21.39,12.6,47.26,23.1,70.82,14.98,17.98-6.19,32.01-22.54,50.99-24.21,29.48-2.6,47.9,29.74,57.64,57.02,9.73,27.28,25.76,60.07,55.36,60.29,17.69.13,33.76-12.49,51.42-11.29,39.95,2.73,40.74,61.92,69.22,89.39,32.07,30.95,90.07,9.34,114.66-27.57,11.51-17.28,18.5-36.57,24.14-56.46,8.92-4.01,12.24-18.05,14.93-26.2,5.01-15.18,14.82-29.16,23.87-42.51,10.76-15.86,21.85-31.58,30.83-48.54,2.32-4.38,4.49-8.84,6.63-13.32,1.27-.18,2.51-.85,3.42-2.15,3.56-5.05,7.53-9.67,10.13-15.18,7.11-2.17,14.59-3.25,22.41-3.01,19.64.6,37.28,9.77,51.27,23.34.4.81.8,1.62,1.23,2.42,1.75,5.89,3.35,11.83,5.34,17.62,1.85,5.39,3.59,10.81,5.24,16.26.92,9.21,4.55,18.62,7.14,26.85.49,1.56.96,3.12,1.44,4.68,6.42,26.45,9.49,54,17.71,79.97.32,15.47,1.23,31.51,8.65,45.2,7.44,13.72,23.24,24.34,38.81,21.15,20.74-4.25,31.45-29.55,52.17-33.9,37.85-7.95,56.45,56.8,95.16,55.9,20.34-.47,34.81-19.38,53.74-26.65,33.89-13,70.22,14.36,89.63,44.42,19.41,30.06,32.37,66.08,62.13,86.55,26.05,17.92,62.73,19.79,90.56,4.62,18.67-10.18,32.65-26.74,46.23-42.88,24.88-29.58,53.47-61.07,92.25-66.8,65.24-9.65,116.92,57.04,182.07,67.22,67.55,10.55,127.53-41.17,171.52-92.3,43.98-51.13,90.17-109.81,157.75-120.29Z" style="fill: #a4bdc2;"/>
    <g>
      <path d="M1927.03,491.25c3.96-.65,2.41-1.22,2.98-1.47-6.61,1.4-2.76,1.66-2.98,1.47Z"/>
      <path d="M1867.95,518.52l.76-.92c-1.26.98-2.47,2.04-3.69,3.07-1.21,1.04-2.44,2.05-3.61,3.14,1.06-.92,2.15-1.79,3.25-2.67,1.1-.87,2.18-1.77,3.29-2.62Z"/>
      <path d="M1822.61,558.17c1.23-.79,2.78-2.17,4.56-3.89,1.75-1.74,3.76-3.8,5.87-6,4.24-4.35,8.94-9.18,13.19-12.49l1.54-.92,2.97-4c-10.06,8.45-21.57,20.91-28.13,27.3Z"/>
      <path d="M1798.86,579.93c1.72-1.13-4.18,5.55,5.03-5.53-.52.51-.68.64-1,.93-.85.98-2.03,2.32-4.04,4.6Z"/>
      <path d="M1802.9,575.32c4.13-4.8-3.08,2.82,0,0h0Z"/>
      <path d="M1784.24,597.76l4.95-6.68c-1.38,1.11-6.17,6.74-4.59,4.48-5.25,6.71-3.87,5.57-.36,2.2Z"/>
      <path d="M1780,604.46l2.59-3.43c-.59.49-1.35,1.33-2.59,3.43Z"/>
      <path d="M1788.1,593.75l-5.51,7.28c.95-.77,1.38-.57,2.56-3.31-.15.84.69-.8,2.95-3.96Z"/>
      <path d="M1791.6,589.93c3.25-3.36,7.3-7.82,2.28-1.15,5.06-6.13,7.07-8.88,6.49-8.6-.57.28-3.72,3.61-8.77,9.75Z"/>
      <path d="M1821.57,561.41l4.6-4.22,3.43-4.19c-.85,1.05-3.04,3.12-4.9,4.96-1.85,1.85-3.43,3.44-3.13,3.45Z"/>
      <path d="M1750.08,635.87c-.13.58,2.47-1.44,3.17-1.62,1.3-1.54,2.59-3.1,3.86-4.67-2.23,2.18-6.43,6.29-7.03,6.29Z"/>
      <path d="M1753.25,634.25c-1.93,2.33-3.91,4.6-5.89,6.89,5.69-5.74,6.47-7.05,5.89-6.89Z"/>
      <polygon points="1780.28 606.6 1789.09 594.35 1778.43 608.84 1780.28 606.6"/>
      <path d="M1725.21,659.54c1.14-1.27,2.25-2.57,3.36-3.87-1.99,2.29-4.08,4.49-6.14,6.73l2.78-2.86Z"/>
      <path d="M1707.55,673.7c1.33-1.35.16-.77-.98-.23-1.15.54-2.26,1.08-.75-.19-2.46,1.79-4.68,3.54-6.8,5.13-2.09,1.65-4.08,3.12-5.95,4.54,4.13-2.78,8.59-5.64,14.5-9.26Z"/>
      <path d="M1686.58,687.47c2.09-1.36,4.23-2.81,6.48-4.51-2.18,1.51-4.36,2.92-6.48,4.51Z"/>
      <path d="M1736.24,651.79c-.65.33-1.92.94-5.82,4.15,1.07-.58,2.15-1.14,3.2-1.74.8-.73,1.7-1.56,2.61-2.41Z"/>
      <path d="M1733.74,654.13l-.11.07c-2.86,2.58-4.88,4.32-5.74,5.08.74-.66,2.52-2.17,5.85-5.15Z"/>
      <path d="M1736.9,651.18c-.24.22-.42.39-.66.61.31-.17.48-.29.66-.61Z"/>
      <path d="M1764.2,624.31c-3.15,4.33-10.36,12.86-2.52,5.4,2.12-3.25-2.29,1.07,2.52-5.4Z"/>
      <path d="M1740.83,648.9c2.37-2.16,4.67-4.41,6.99-6.63-.29-.02-1.74.98-.07-1.07-2.28,2.58-4.56,5.18-6.92,7.69Z"/>
      <path d="M1737.61,652.35c1.1-1.13,2.15-2.3,3.22-3.45l-2.62,2.42-.6,1.03Z"/>
      <path d="M1700.83,679.75c-1.61,1.29-3.35,2.56-5.26,3.78-.95.61-1.93,1.24-2.94,1.89-1.03.61-2.09,1.23-3.18,1.87,4.83-2.48,9.6-5.49,14.06-8.45.23-.33.76-.93.64-1.02-.13-.1-.89.33-3.32,1.93Z"/>
      <path d="M1717.33,668.04c-.22.19-.49.43-.69.6.49-.29.86-.55.69-.6Z"/>
      <path d="M1643.34,704.42c.27,0,.52,0,.8,0,.05-.06.09-.12.16-.18l-.96.18Z"/>
      <path d="M1704.34,678.44c1.73-1.11,3.07-2.06,4.19-2.92,1.1-.9,2-1.71,2.86-2.51-2.4,1.92-5.03,3.82-7.89,5.82-.21.3-.22.4.84-.39Z"/>
      <path d="M1674.42,693.93c2.01-.64,4.21-1.59,6.54-2.55-.99.33-2.47.85-3.78,1.36-1.3.52-2.47.92-2.76,1.19Z"/>
      <path d="M1715.4,669.31c.16-.14.29-.26.46-.41-1.17.68-.98.65-.46.41Z"/>
      <path d="M1715.4,669.31c-.79.7-1.49,1.34-2.13,1.96-.65.61-1.27,1.18-1.88,1.75,1.98-1.52,3.74-3.04,5.25-4.37-.44.26-.9.5-1.24.66Z"/>
      <path d="M1628.75,711.35c.36-.42,3.29-.82,7.27-1.42,3.99-.51,9.01-1.32,13.75-1.85,4.49-1.37,5.04-2.35,3.5-2.91-.77-.28-2.06-.46-3.65-.54-1.6-.13-3.5-.23-5.49-.2-.11.18-.14.41-1.3.75-.58.17-1.43.39-2.72.68-.64.14-1.4.3-2.27.48-.88.13-1.89.28-3.04.45,1.65.12,6.83-.24,10.62-.68,3.79-.44,6.26-.59,2.41.52-1.53.34-2.84.63-3.97.88-1.14.18-2.09.32-2.91.43-1.64.2-2.71.34-3.6.32-1.77-.03-2.75-.18-5.78-.17.65.11.89.18.82.3-.07.12-.45.26-1.05.37-1.2.24-3.26.53-5.42.79-2.15.17-4.4.35-5.95.58-1.54.15-2.38.39-1.71.8,1.87.1,3.74-.02,5.6-.05.93-.04,1.86-.02,2.79-.11l2.79-.23c.22.22-3.83.72-.71.82Z"/>
      <path d="M1661.27,700.19l3.59-1.34c-4.16,1.29-7.23,2.01-12.9,2.78-3,.98-4.84,1.47-5.96,1.84-1.12.37-1.52.6-1.71.77,6.16-1,12.21-2.64,18.17-4.59l-1.2.54Z"/>
      <path d="M1680.69,692.09c-2.26,2.18-10.69,6.19-5.08,4.76,2.63-1.12,4.31-2.09,5.54-2.74,1.22-.68,1.95-1.13,2.53-1.57,1.16-.87,1.8-1.48,4.7-3.25-16.14,8.72,4.46-2.8-7.51,2.83,1.59-.82,3.05-1.71,4.49-2.49.72-.39,1.42-.78,2.1-1.16.68-.4,1.34-.79,2-1.18-.73.38-1.45.76-2.16,1.14-.73.35-1.44.69-2.15,1.03-1.43.66-2.79,1.37-4.17,1.92.16-.05.27-.09.4-.13l.07-.04s-.01.01,0,.02c.75-.25,1.01-.3.19.03-.05.04-.25.14-.33.18-.06.16-.31.4-.6.65-4.82,2.14-.84.16.6-.65.04-.06.15-.16.14-.21-.02,0-.04.01-.07.02-5.35,2.87-10.87,5.38-16.5,7.61,1.84-.56,3.85-1.39,6.42-2.38,2.53-1.11,5.6-2.43,9.42-4.39Z"/>
      <path d="M1756.26,638.29c-.45.37-.48.31-.56.3-.76.96-1.02,1.34.56-.3Z"/>
      <path d="M1750.55,643.49c.86-1.07,1.43-2.1,4.53-5.24,2.82-2.61.29.3.63.35,1.67-2.1,5.94-7.22-.09-1.42l-.82,1.04c-5.39,5.28-13.03,11.26-12.19,10.24,2.11-.96,3.87-1.94,7.94-4.97Z"/>
      <path d="M1717.11,671.35c-3.96,3.31-8.08,6.42-12.24,9.48,2.28-1.32,4.62-2.57,6.87-3.96l-.59-.12c1.8-1.28,3.03-2.19,3.88-2.86.84-.68,1.29-1.12,1.54-1.42.5-.6.21-.65.53-1.12Z"/>
      <path d="M1641.57,704.24c.61-.4,1.21-.77,1.81-1.19-2.75.82-5.53,1.74-8.36,2.36,1.1-.18,2.2-.28,3.29-.52l3.27-.66Z"/>
      <path d="M1622.27,705.56l.73-.78-2.55.19-2.55.06,2.18.32c.73.09,1.46.14,2.19.21Z"/>
      <path d="M776.55,436.43c-.45-1.48-.86-2.95-1.31-4.31.59,1.96.98,3.34,1.31,4.31Z"/>
      <path d="M785.48,468.3l.55.7c-.53-1.43-.81-2-.55-.7Z"/>
      <path d="M1194.27,732.2c-1.01-1.23-1.92-2.63-2.79-3.92-.86-1.31-1.73-2.47-2.37-3.56-1.33-2.12-2.25-3.4-2.37-2.83l.53,2.08c.73.85,1.38,1.7,2.04,2.44.66.74,1.28,1.45,1.85,2.13.57.68,1.11,1.33,1.61,1.95.5.63,1.03,1.16,1.49,1.72Z"/>
      <path d="M935.24,592.9c.47.44.96.88,1.43,1.34,1.44.77,2.84,1.47,4.03,2.19-.78-.58-1.66-1.16-2.58-1.75-.46-.3-.92-.6-1.39-.91-.49-.28-.98-.57-1.49-.87Z"/>
      <path d="M929.51,593.47c-2.26-1.43-4.59-2.81-7.09-3.64.41.17.87.36,1.37.56.51.19,1.03.51,1.63.79,1.19.53,2.53,1.36,4.09,2.29Z"/>
      <path d="M669.19,455.86l-1.9,5.05c4.15-7.22,1.94-4.26,1.9-5.05Z"/>
      <path d="M1429.05,636.92c-3.04.3-5.75.79-8.24,1.18-2.44.6-4.65,1.19-6.72,1.76,3.63-.76,6.86-1.49,9.51-1.73,2.62-.33,4.53-.78,5.45-1.2Z"/>
      <path d="M789.08,446.41c-.27-.67-.5-1.24-.69-1.72-.19-.45-.36-.8-.49-1.08-.28-.55-.45-.78-.53-.71.51,1.28.92,2.29,1.23,2.97.3.65.48.87.48.55Z"/>
      <path d="M1397.95,646.79c.98-.43,1.9-.93,2.93-1.3,1.99-.99,3.96-2.03,6.11-2.99,2.2-.85,4.5-1.8,7.1-2.64-1.33.3-2.66.78-4.04,1.2-1.37.46-2.79.89-4.16,1.48-1.36.61-2.72,1.26-4.06,1.95-.67.34-1.34.7-2,1.06-.64.39-1.26.82-1.88,1.24Z"/>
      <path d="M224.68,436.15c-.42.22-.91.52-1.29.71-.06.18.5-.17,1.29-.71Z"/>
      <path d="M44.48,397.44c1.95-.53,5.2-1.17,8.32-1.44-1.51.11-4.09.29-8.32,1.44Z"/>
      <path d="M1548.48,679.56c3.73,2.06.63.25,0,0h0Z"/>
      <path d="M1565.07,692.45c-.85-.32-1.53-.52-1.72-.38.41-.03,1,.12,1.72.38Z"/>
      <path d="M1366.57,677.49c-.09.09-.16.16-.26.26,1.02-.78.84-.65.26-.26Z"/>
      <path d="M1553.86,683.06c-1.35-.87-2.9-1.87-4.61-2.91.73.49,2.13,1.4,4.61,2.91Z"/>
      <path d="M1553.31,682.29c1.27.74,2.26,1.31,3.21,1.87.54.13.17-.17-3.21-1.87Z"/>
      <path d="M1543.32,676.6c2.12,1.22,4.06,2.42,5.93,3.55-.7-.46-.98-.68-.77-.59-1.09-.62-2.62-1.5-5.17-2.96Z"/>
      <path d="M463.73,604.47c-.13-.26-.28-.56-.41-.86-2.51-3.68-1.51-2,.41.86Z"/>
      <path d="M1126.41,644.98c.14.13.22.2.35.32-.12-.15-.28-.34-.39-.48l.04.15Z"/>
      <path d="M1115.25,635.1c5.5,3.3,8.01,6.04,11.12,9.72-.49-1.8-1.06-3.55-1.64-5.35-3.13-1.63-6.31-3.07-9.48-4.37Z"/>
      <path d="M730.91,386.29c1.97,0,4.07-.2,5.82-.36.91-.08,1.51-.09,1.66-.02.25.08.47.19.65.34-.1-.02-.22,0-.32.03-.1,0-.19.03-.28.05-.09.03-.17.07-.25.1-.15.05-.48.13-.7.18-1.26.3-2.83.68-4.26.91-2.87.5-5.22.65-6.73.77-1.5.08-2.2.16-1.83.3.38.12,1.8.38,4.71.51.21-.35,1.2-.71,2.75-1.04.77-.18,1.7-.38,2.69-.59.97-.21,2.13-.47,2.9-.63.16-.03.33-.07.5-.1l.15-.04c.1-.02.21-.01.32,0,.06-.01.11.01.17.03l.08.03.16.08.34.19.6.43c.38.25.86.66,1.32,1.02.45.35.95.79,1.44,1.22.49.43.98.85,1.49,1.31l1.37,1.24c.06.05.06.05.15.17l.53.65c.37.47.75.94,1.11,1.4.75.94,1.48,1.86,2.19,2.75,1.43,1.78,2.77,3.44,3.97,4.84,2.4,2.8,4.23,4.61,4.95,4.5l3.92,6.04c-1.24-1.65-1.56-1.81-2.78-3.44,1.87,2.97,3.28,4.87,4.61,6.38.22.24.43.48.64.71.17.18.35.37.52.53l.23.19c.3.25.6.47.89.69.59.43,1.17.82,1.73,1.24,1.14.84,2.39,1.77,3.74,3.4.36.4.69.85,1.03,1.36.17.25.35.52.53.8.16.29.32.59.49.91.68,1.27,1.29,2.82,1.82,4.85.7,2.82,1.14,5.49,1.32,6.84.18,1.38,0,1.43-.67-.63.67,2.25,1.38,4.57,2.19,6.86.39,1.15.83,2.28,1.27,3.41l1.23,3.23c1.17,3.77.42,2.99-.74-.75,2.32,6.47,4.07,13.18,5.63,19.95l-.11-.13c1.08,2.8,3.01,9.35,3.83,12.6.53,5.35-.74-2.6-.84-1.19.89,3.79,1.74,7.61,2.56,11.43.03,4.84-2.09-4.69-3.4-12.61-.78,11.19,2.23,9.35,4.42,33.14l-2.09-10.97c-.39,7.33,1.39,15.87,3.07,28.65-.1-1.55-.75-7.96-.88-12.38-.13-4.42.11-6.85,1.54-.56.19,1.81.52,3.89,1.01,6.37.46,2.48,1.2,5.35,2.19,8.7-.48.14-.29,1.86.33,4.59.31,1.36.67,2.98,1.16,4.77.5,1.78,1.05,3.75,1.63,5.82l-1.38-.22c1.47,4.44,2.41,6.41,3.15,7.92.72,1.46,1.37,2.3,2.29,4.73,1.16,4.7,1.4,7.75,1.45,9.82.03,2.1-.21,3.28-.4,4.54.71,4.02,1.07,5.38,1.22,5.35.15-.02.07-1.39.07-2.63-.01-1.25.01-2.41.28-2.07.28.35.74,2.17,1.84,6.99.62,3.42,1.37,6.62,2.38,9.72,1.01,3.08,2.18,6.08,3.8,9.01,3.24,5.88,7.8,11.53,15.11,16.49.98.85,1.79,1.35,2.31,1.77.53.41.84.66.97.81.27.28-.15.14-.75-.14-1.19-.54-3.11-1.58-1.61-.39,2.76,1.51,5.76,2.59,8.76,3.44,2.15.79,1.36.84.95.86,1.9.61,2.99.63,3.62.68.65,0,.89-.08,1.28-.16.39-.1.92-.17,2.1-.12.29.01.63.03,1.02.05.39,0,.83,0,1.33-.01.5,0,1.05,0,1.68.01.62-.05,1.31-.1,2.08-.15.4-.2,1.09-.29,2.01-.51.91-.2,2.09-.29,3.41-.61,2.64-.55,6.03-1.52,9.42-3.24,3.42-1.68,6.83-4.01,9.88-6.57,3.05-2.57,5.75-5.33,7.94-7.99,2.68-2.07-.63,1.69.46,1.34,6.34-6.89,9.16-9.29,11.81-11.42,1.33-1.02,2.59-1.96,4.31-3.04,1.74-1.04,3.91-2.3,7.36-3.21,4.04-.44,8.04.07,11.74,1.44-1-.47-1.75-.68-2.23-.91-.48-.22-.7-.39-.69-.52,0-.25.94-.37,2.49-.3.77.1,1.69.24,2.72.41,1.01.27,2.14.57,3.32.96,2.32.87,4.88,2.01,7.2,3.42-1.24-1.21-2.52-2.18-3.64-3.09-1.15-.85-2.21-1.53-3.07-2.08,5.44,2.32,10.33,5.73,14.84,9.46,1.4,1.61-.16.68-2.68-.76.96.7,1.9,1.34,2.6,1.88,2.13,2.28,2.43,3.04,1.78,2.87-.65-.17-2.28-1.21-4.15-2.4-.71-.78-1.41-1.55-2.1-2.32-.73-.74-1.45-1.48-2.16-2.21-.97-.47-1.94-.89-2.82-1.28-.88-.38-1.74-.61-2.42-.81-1.37-.39-2.22-.34-2.03.18.51.16,1.19.54,2.01.96.41.22.86.44,1.31.72.45.29.91.59,1.39.9-1-.44-1.65-.68-1.32-.29.37.45,1.96,1.11,4.29,2.59.71,1.13,1.33,2.36,1.97,3.52.35.06.72.11,1.07.18,5.2,5.13,9.98,10.85,14.88,16.62,6.06,5.46,11.92,10.61,19.38,15.67,3.74,2.5,7.9,4.98,12.87,6.87,2.46,1,5.17,1.66,8.04,2.19,2.89.35,5.97.62,9.18.18-.79.2-1.41.37-1.88.53-.48.13-.82.22-1.04.33-.45.22-.44.44-.22.67.42.48,1.68.96,1.52,1.56-1.93-.33-4.21-.47-6.78-.93-.32-.04-.65-.09-.98-.14-.32-.07-.65-.15-.99-.23-.67-.15-1.35-.3-2.06-.45-.71-.12-1.39-.4-2.11-.6-.71-.23-1.46-.42-2.18-.69-5.82-2.1-11.94-5.72-16.99-10.4,1.31,1.23,2.28,2.05,2.88,2.64.61.59.88.93.93,1.09.1.33-.7-.06-1.49-.56,3.39,2.44,6.99,4.73,10.92,6.48,3.93,1.75,8.16,2.99,12.48,3.42-.18.23.06.44.65.65.59.2,1.51.45,2.69.5,1.18.07,2.6.26,4.16.12.78-.04,1.6-.07,2.44-.11.84-.06,1.68-.22,2.55-.32-2.78-.58,2.19-1.36,8.18-4.12,6.04-2.71,12.82-7.39,16.59-10.42.44.1.28.63-1.23,1.96-.74.67-1.86,1.54-3.43,2.64-.77.56-1.7,1.15-2.74,1.8-.53.32-1.07.68-1.67,1.02-.61.34-1.26.69-1.94,1.06.79-.33,1.54-.67,2.25-1.01.69-.36,1.34-.72,1.96-1.08,1.25-.71,2.31-1.46,3.3-2.19,1.97-1.46,3.52-2.94,5.06-4.39,3.07-2.88,6.02-5.94,11.68-8.64-2.38,1.49-3.71,2.23-4.45,3.16,2.57-2.11,7.36-5.15,11.31-6.76.99-.39,1.89-.78,2.7-1.03.81-.24,1.5-.43,2.01-.54,1.02-.24,1.33-.16.51.25l-2.52.91c4.18-1.54,9.69-2.92,15.67-2.97,2.98-.08,6.07.18,9.11.69,1.53.21,3.03.59,4.52.91,1.48.41,2.95.77,4.36,1.26,5.69,1.8,10.68,4.31,14.43,6.28,3.76,1.98,6.28,3.48,7.11,3.54,0,.29-3.18.22-4.29-.09,10.1,4.56,19.72,11.06,28.44,18.82-1.53-.72-1.12,1.73-1.71,2.85-.29.56-.82.8-1.91.18-1.1-.61-2.75-2.1-5.48-4.8,2.78,3.43,6.2,7.65,11.79,15.1-1.46-2.61-2.59-7.42-.06-4.09,2.59,5.18,3.34,7.04,4.42,9.13,1.06,2.08,2.3,4.46,5.19,11-2-4.18,2.55-.86,6.01,5.64-.85-.84-1.69,1.62-3.19-.62l10.74,15c-2.54-3.82-2.09.21-.6,4.12-.26-.95,1.63,2.55,4.07,6.76,2.41,4.22,5.43,9.13,6.93,11.13l-1.95-3.45-1.84-3.49c.67,1.13,1.31,2.18,1.92,3.16.62.98,1.25,1.86,1.84,2.7,1.19,1.67,2.23,3.13,3.32,4.37,1.06,1.25,2.05,2.34,3.01,3.35.95,1.01,1.95,1.88,2.89,2.78.97.88,1.9,1.78,2.92,2.7,1.05.9,2.14,1.87,3.31,2.98,1.14,1.13,2.5,2.28,3.96,3.65.73.69,1.5,1.42,2.32,2.2.86.74,1.77,1.53,2.73,2.39-1.08-.65-2.73-1.15-3.14-.59-.2.28-.1.83.56,1.78.33.47.79,1.04,1.43,1.73.63.69,1.42,1.5,2.5,2.32,1.18.52,3.03,1.38,5.44,2.39,2.49.91,5.43,2.11,8.86,3.11,6.8,2.14,15.15,3.96,23.83,5.25,1.05.5,2.13.81,3.21,1.22l3.38.32,3.39.1c2.25.14,4.51-.05,6.75-.1-4.17.92-12.37,1.82-21.34.94-1.13-.05-2.23-.28-3.37-.42-1.13-.17-2.27-.34-3.4-.51-2.22-.5-4.47-.96-6.61-1.55-1.06-.33-2.11-.66-3.13-.98-1.02-.33-2.05-.62-2.98-1.03-1.88-.78-3.7-1.46-5.28-2.23,3.38,2.25,3.83,2.65,4.7,3.29.44.32,1.01.68,2.18,1.22.59.27,1.32.62,2.25,1.05.93.42,2.06.98,3.5,1.47,1.92,1.03.26.72-2.28-.15-1.25-.48-2.73-1.08-4.1-1.66-1.39-.54-2.57-1.26-3.39-1.66,8.4,4.68,17.55,8.01,27,9.73-.5-.8,4.94-.1,10.4-.1,1.36.06,2.73-.07,4-.1,1.27-.07,2.44-.09,3.43-.21,1.97-.27,3.18-.54,2.89-.81-1.27.1-2.53.27-3.8.32l-3.82.1-1.92.04-1.91-.07-3.84-.16c-5.09-.46-10.22-1.12-15.22-2.42-.21-.41.83-.53,2.77-.39.98.04,2.2.07,3.59.18,1.4.1,2.98.28,4.74.31,7,.45,16.49.43,26.12-.71,2.48-.02,1.67.68.24,1.43-1.42.76-3.48,1.57-3.25,1.77.64-.19,2.12-.47,4.02-.8.95-.13,1.99-.39,3.08-.63,1.09-.24,2.23-.49,3.36-.74,2.25-.55,4.45-1.22,6.22-1.66,1.75-.54,3.04-.97,3.51-1.03l-1.95.84c-.65.29-1.31.57-1.98.79l-4.03,1.41c2.74-.58,5.21-1.2,7.47-2.17,1.14-.45,2.25-.9,3.35-1.38,1.07-.54,2.13-1.08,3.22-1.63,4.31-2.21,8.7-4.75,14.57-7.92.95-.63,2.18-1.37,3.51-2.12,1.29-.79,2.68-1.61,3.94-2.4,1.24-.82,2.38-1.58,3.2-2.22.81-.65,1.31-1.16,1.33-1.44-1.64.96-3.17,1.46-4.45,1.63-1.28.17-2.3.03-3.04-.37-1.46-.8-1.68-2.46-.26-4.4.63-.41,5.19-3.81,9.86-7.86,4.69-4.03,9.47-8.68,11.4-10.34,2.83-2.35,1.6.18.23,2.8-1.38,2.62-2.93,5.32-.44,3.34-.08-.44,2.26-3.78,3.25-5.15,3.25-3.36-.35,2.23,6.03-5.64.05-2.19,13.11-15.73,2.15-4.42,5.97-7.84,6.82-7.93,14.3-16.68-3.08,2.21,4.45-9.86,11.23-17.14-.17.66,1.72-.6,2.62-1.21,7.23-7.04,13.3-11.9,19.46-16.28,1.57-1.06,3.1-2.14,4.69-3.18,1.62-.99,3.26-1.99,4.95-3.02,3.44-1.94,7.1-3.95,11.38-5.82.43-.1,1.25-.42,2.23-.72.99-.27,2.12-.57,3.08-.83,1.92-.49,3.19-.71,1.52.23.6-.3,1.18-.59,1.8-.9.63-.28,1.31-.55,2.08-.85.77-.3,1.64-.62,2.66-.96.51-.17,1.06-.35,1.65-.54.59-.18,1.25-.28,1.94-.43,5.52-.48,2.4.18-.98.92-3.36.94-6.94,2.15-2.77,1.67.12-.23,1.03-.69,2.46-1.23,1.46-.43,3.45-.95,5.67-1.51,1.11-.33,2.31-.43,3.51-.65,1.21-.18,2.44-.43,3.66-.56,1.23-.11,2.44-.22,3.59-.33.58-.06,1.15-.11,1.69-.16.55-.02,1.08-.04,1.59-.05-.31-.16-.84-.29-1.54-.4-.7-.07-1.58-.08-2.59-.07-1.01.01-2.15.04-3.38.11-1.22.15-2.52.32-3.87.52-.67.1-1.36.19-2.04.31-.68.16-1.36.32-2.04.49-1.36.34-2.72.67-4.04,1-2.61.77-4.99,1.7-6.9,2.35-.14-.4.57-1.04,2.03-1.9,1.47-.83,3.66-2.01,6.61-2.87,5.79-2.08,14.52-3.69,24.65-3.19,4.02.18,6.42.71,7.84.97,1.42.28,1.84.53,1.85.68.03.3-1.56.31-.19.46,1.82.39,3.52.75,5.09,1.09,1.56.39,3.01.76,4.36,1.1,1.36.31,2.59.67,3.75,1,1.16.31,2.24.6,3.25.87,2,.58,3.73,1.08,5.32,1.5,1.59.43,2.99.87,4.38,1.26,5.49,1.67,10.49,3.24,21.06,9.63,8.04,5.63-.64,2.08.89,3.8-2.85-1.44-5.33-2.78-7.6-3.98-2.26-1.23-4.3-2.34-6.23-3.39-3.86-2.09-7.32-3.9-11.36-5.5l4.84,2.28,4.76,2.43c-1.94-.65-4.83-1.89-7.85-3-2.98-1.21-6.09-2.29-8.21-3.25.91.46,2.33,1.08,4.13,1.83,1.81.73,3.97,1.74,6.45,2.79,4.9,2.24,10.89,5.13,17.14,8.51,12.52,6.74,26.14,15.24,35.69,21.37,3.65,1.75,9.86,4.89,7.23,2.88l-6.27-3.49c-5.24-4.08,12.24,5.78,4.62.85,8.62,4.29,18.36,8.76,30.31,14.7l1.82,2.12c-.14-.41-7.72-4.18-11.23-5.62,1.32.5,3.07,1.44,5.1,2.48,1.01.54,2.09,1.11,3.2,1.71,1.13.57,2.29,1.15,3.46,1.73,2.33,1.2,4.76,2.19,6.96,3.03,2.21.81,4.26,1.28,5.82,1.41l-4.28-1.92c-1.41-.67-2.81-1.39-4.21-2.07,1.14.35,2.3.71,3.5,1.08,1.2.37,2.45.65,3.71.99,2.52.7,5.18,1.22,7.87,1.83,1.35.3,2.73.51,4.11.78.69.14,1.38.27,2.08.41.7.11,1.4.22,2.1.33,1.4.24,2.81.47,4.23.71,1.42.19,2.85.39,4.27.63-2.53-.94-3.18-.99-4.2-1.12-1.01-.14-2.4-.44-6.24-1.89,1.63.77.66.86-1.56.4-1.11-.22-2.52-.53-4.08-.9-1.54-.45-3.22-.94-4.86-1.43-6.54-2.08-12.45-4.56-7.39-1.57-1.84-1.17-3.62-2.07-5.35-3-1.73-.94-3.48-1.73-5.28-2.64-3.59-1.81-7.49-3.79-12.12-7.04.13.5,3.15,2.59-5.49-2.3-.45-.11-1.45-.49-2.08-.74-.26-.16-.35-.21-.57-.35.17.11.29.19.46.31-.41-.16-.45-.16.17.11,1.99,1.29,3.57,2.42,4.15,2.98-2.39-.77-7.06-3.08-11.71-5.58-4.65-2.51-9.3-5.14-11.75-6.33-5.03-3.23,2.38.89-.19-1.16l-7.32-3.54c-.21-1.19-12.96-9.41-.51-2.66-3.64-2.18-7.3-4.35-10.98-6.5-6.26-4.21-15.39-9.37-21.46-11.78-5.45-2.86-14.67-5.25-9.42-3.87-6.4-2.42-12.95-4.55-19.72-6l-.13-.27c-4.99-1.18-10.14-2.12-15.47-2.41-1.33-.06-2.65-.24-4-.21-1.34,0-2.69,0-4.04,0-1.35-.04-2.71.13-4.07.19-1.36.11-2.73.12-4.09.32-2.72.38-5.49.62-8.22,1.27-1.37.27-2.75.54-4.13.82-1.38.31-2.72.73-4.1,1.09-1.36.39-2.77.69-4.13,1.15-1.36.46-2.72.92-4.09,1.39l-2.07.68c-.69.24-1.35.54-2.03.8-1.36.53-2.73,1.07-4.1,1.61-6.05,3.38-12.14,7.1-21.31,13.89l-2.23.78c-.83.72-1.82,1.47-2.82,2.34-1.01.86-2.08,1.78-3.2,2.73-2.28,1.85-4.54,3.99-6.76,5.95-2.18,2-4.15,3.98-5.77,5.61-1.58,1.66-2.72,3.02-3.21,3.83-2.01,1.32-4.74,3.94-7.93,7.27-1.56,1.68-3.22,3.55-4.95,5.52-1.69,1.99-3.46,4.09-5.21,6.24-3.45,4.29-7.01,8.71-10.29,12.79-3.27,4.02-6.33,7.58-8.84,10.2l.38,1.09c-3.41,3.67-6.77,7.2-10.49,10.73-3.72,3.52-7.8,7.07-12.75,10.54l1.12.34c-1.05.79-2.19,1.63-3.48,2.4-.64.39-1.29.8-1.97,1.19-.7.35-1.41.72-2.14,1.09-.73.36-1.48.73-2.25,1.11-.76.39-1.59.65-2.41.99-1.65.63-3.33,1.35-5.14,1.83-7.15,2.25-15.34,3.53-23.57,3.88.55-.2,1.87-.33,3.42-.39,1.54-.15,3.32-.3,4.8-.36-1.24.01-2.48.05-3.72.11-.62.04-1.24.05-1.87.03h-1.88c-2.5.1-5.02-.06-7.56-.09-1.27-.02-2.53-.17-3.8-.24-1.27-.08-2.54-.13-3.8-.32l-3.79-.44c-1.26-.19-2.5-.45-3.75-.66l-1.87-.33-1.84-.45c-1.22-.31-2.44-.61-3.66-.92-1.19-.4-2.36-.79-3.54-1.18-.59-.2-1.17-.4-1.75-.6-.56-.24-1.12-.49-1.68-.73-1.11-.49-2.22-.99-3.31-1.47-1.05-.57-2.08-1.15-3.1-1.74-.51-.29-1.01-.59-1.51-.88-.5-.29-.95-.66-1.42-.98-.93-.67-1.83-1.35-2.71-2.02-1.92-1.12-3.44-2.32-4.84-3.38-.34-.27-.69-.53-1-.81-.31-.29-.61-.58-.9-.86-.58-.58-1.14-1.14-1.69-1.69.31.27.6.51.86.7-.34-.31-.85-.76-1.37-1.22-1.42-1.37-2.65-3.03-4.11-4.67,1.17,1.46,2.26,2.93,3.37,4.03-1.29-1.14-2.79-2.73-4.53-4.37-.88-.81-1.68-1.79-2.57-2.7-.87-.94-1.79-1.86-2.65-2.84l-.62-2.34c-.27-.32-.48-.59-.76-.92-1.45-2.09-2.11-2.87-2.34-2.76-.22.1-.02,1.12.55,2.4-1.74-1.98-3.25-3.9-4.55-5.28-.3-1.07-.9-2.34-1.74-3.68-.83-1.35-1.87-2.79-2.87-4.33-1-1.54-2.06-3.09-2.91-4.67-.85-1.58-1.54-3.13-1.91-4.59-1.25-1.35-4.66-7.12-8.07-12.84-3.41-5.73-6.89-11.35-8.35-12.18.1-.27-.58-1.71.85.83-1.39-2.67-2.75-5.36-4.24-7.91-.74-1.27-1.46-2.53-2.24-3.73-.78-1.19-1.58-2.35-2.39-3.44-.11-.94-.19-1.89-.32-2.84-2.87-3.5-5.9-6.82-9.08-9.96-2.23-3.39-3.91-5.74-4.24-6.58-.33-.84.73-.23,3.72,2.58-3.43-3.55-5.99-5.87-7.94-7.69-1-.89-1.85-1.65-2.62-2.34-.78-.67-1.49-1.28-2.17-1.87-.67-.6-1.38-1.13-2.11-1.73-.73-.59-1.52-1.21-2.47-1.87-1.85-1.37-4.27-2.98-7.87-5.05l1.12-.19c-2.47-1.68-5.88-3.57-9.13-5.08-3.25-1.52-6.27-2.79-7.84-3.73-1.48-.81-3.59-1.77-6.29-2.66-2.68-.93-5.96-1.74-9.7-2.26-3.74-.51-7.98-.68-12.47-.18-4.48.49-9.19,1.65-13.77,3.55-9.23,3.77-17.3,10.15-25.19,15.45-3.95,2.66-7.89,5.07-11.82,6.81-3.92,1.75-7.83,2.77-11.47,2.98.74.24,1.09.41,1.12.53.03.14-.25.24-.78.29-.52.06-1.28.09-2.17.12-.89.03-1.92-.17-3-.25-.54-.03-1.08-.17-1.63-.28-.54-.11-1.09-.22-1.63-.33-1.07-.26-2.08-.62-3-.83-.91-.28-1.7-.57-2.34-.69-.64-.12-1.1-.15-1.32-.01-1.45-1.22-5.01-3.31-.45-1.67-.44-.18-.87-.35-1.29-.53-.42-.18-.82-.41-1.22-.61-.79-.43-1.59-.78-2.31-1.27-.73-.46-1.44-.91-2.13-1.35-.67-.49-1.32-.97-1.95-1.43-1.27-.92-2.4-1.95-3.51-2.87-1.07-1-2.13-1.91-3.11-2.88-3.96-3.81-7.38-7.4-11.9-11.16-.91-1.8,3.04,2.1,2.12.62-1-.91-3.99-3.62-4.95-5.15-.93-1.5,2.03,1.53,4.02,3.33-5.86-6.33-9.58-9.62-12.02-11.18-2.46-1.57-3.6-1.51-4.6-1.38-2.97-3.37-5.5-5.69-8.01-7.54-2.57-1.77-5.07-3.18-8.3-4.18-1.27-1.03-3.24-2-3.46-2.36-.12-.17.2-.15,1.22.17,1.04.3,2.74,1.02,5.28,2.4-1.38-.83-4.26-2.51-8.21-3.83-1.96-.68-4.21-1.19-6.57-1.46-2.36-.27-4.83-.24-7.2.03-1.18.2-2.35.33-3.48.59-.56.14-1.12.29-1.66.43-.53.18-1.06.35-1.58.52-2.04.74-3.85,1.58-5.29,2.44-2.9,1.7-4.53,3.16-4.49,3.5-.92.43-2.72,1.75-4.36,3.15-1.63,1.41-3.12,2.88-3.66,3.49-5.09,4.69-7.67,7.27-10.37,9.67-1.34,1.21-2.67,2.39-4.32,3.72-1.65,1.33-3.6,2.84-6.29,4.43,1.04-.51,2.06-1.08,3.06-1.68-1.63,2.05-3.92,3.56-7.01,4.67-1.54.57-3.29,1.02-5.27,1.28-.49.06-1,.13-1.53.19-.52.08-1.07.04-1.62.08-.56,0-1.13.09-1.72.04-.59-.03-1.2-.06-1.83-.09l.3-.14c-2.84-.39-5.06-1.04-6.81-1.74-1.77-.63-3.07-1.34-4.14-1.84-1.03-.59-1.84-.98-2.5-1.37-.66-.39-1.19-.71-1.72-1.02-.54-.3-1.03-.69-1.65-1.12-.3-.23-.64-.47-1.01-.75-.35-.31-.74-.66-1.18-1.05-1.72-1.59-4.28-4.1-7.17-9.05l-.1,1.58c-.72-.16-1.8-1.36-2.9-3.38-1.07-2.03-2.22-4.81-3.07-8.08-1.81-6.5-2.64-14.71-4.36-21.62l.42,5.12c-1.08-3.72-1.31-9.15-1.82-14.73-.12-1.39-.3-2.8-.46-4.19-.21-1.36-.42-2.7-.62-3.99-.38-2.47-.81-4.7-1.28-6.54-.12-.83.09-.21.49.87.39,1.08.95,2.62,1.34,3.71-1.21-4.81-1.76-7.39-2.2-8.73-.43-1.34-.67-1.44-.92-1.38-.47.11-1.06.92-2.92-6.31.01-1.41.64-.65.98-.75.34-.1.4-1.07-.56-5.98-.27-2.48-2.17-9.52-3.98-17.77-1.81-8.25-3.57-17.71-4.08-24.72-.03,3.13-.04,6.23-1.58-.68-.98-5.33-1.83-12.65-3.17-19.82-1.28-7.17-3.39-14.14-5.73-18.56-.28-1.3-.31-1.81-.2-1.9-.72-1.85-1.54-4.3-2.34-7.11-.83-2.8-1.59-5.99-2.78-9.2-1.16-3.21-2.85-6.22-4.56-8.42-.82-1.14-1.7-2.02-2.41-2.82-.76-.74-1.41-1.33-1.92-1.74-.21-.61-.63-1.3-1.18-2.12-.24-.37-.74-.97-.67-1.03-.27-.45-.57-.91-.91-1.42-1.35-2.03-3.12-4.43-5.11-7-2-2.57-4.21-5.31-6.46-8.04-1.13-1.36-2.26-2.73-3.37-4.07-.56-.67-1.12-1.34-1.67-2-.57-.65-1.04-1.29-1.92-2.16-.9-.77-1.77-1.52-2.61-2.24-.85-.7-1.62-1.38-2.45-2.02-.78-.65-1.61-1.25-2.39-1.82-.87-.57-1.74-1.12-2.68-1.5-1.83-.79-3.48-.79-4.6-.88-.94-.04-1.49-.2-1.5-.51-2.18.37-4,.68-5.98.82-.97.11-1.97.1-2.95.16h-3s-.19,0-.19,0h-.27s-.55.03-.55.03l-1.1.07c-.71.09-1.37.26-2.06.4-1.29.37-2.52.84-3.62,1.4-2.21,1.12-4.18,2.44-5.95,3.87l.38-.69c-3.54,2.66-6.03,5.21-8.08,7.43-2.03,2.24-3.59,4.18-4.85,5.9-2.54,3.44-4.01,5.97-5.44,8.5-2.43,2.92-1.01.53-.95.18-7.35,9.48-10.95,14.97-14.13,20.15-3.14,5.2-5.75,10.15-10.19,19.09l-1.91,1.28c-1.13,2.47-5.81,9.68-11.39,18.95-5.58,9.27-12.05,20.61-17.02,31.14,0-.25.07-.77.82-2.46-11.36,23.6-31.56,54.11-32.9,64.2-2.43,5.2-4.88,10.4-7.39,15.55,10.88-19.41-.19,3.67,4.7-4.09-3.95,7.86-12.07,19.18-6.87,9.78l.98-1.38c.13-2.2-3.32,3.82-7.21,9.91-.97,1.53-2.02,2.99-3,4.38-.99,1.38-2.03,2.61-2.88,3.68-1.83,2.04-3.11,3.33-3.27,2.99-6.99,7.96-15.41,14.61-24.52,19.74-9.12,5.11-19.01,8.72-29.05,10.25-10.01,1.53-20.23.87-29.26-2.57-4.51-1.71-8.7-4.1-12.43-7.06-3.72-2.95-6.99-6.48-9.88-10.37.26.74.5,1.5.78,2.23l.89,2.19c-2.96-3.48-5.56-7.31-7.91-11.33-.76-1.68-1.12-2.88-.68-2.59.46.28,1.6,2.14,4.26,6.24-.57-1.15-1.35-2.64-2.34-4.13-.91-1.55-2-3.13-2.95-4.64-1.95-2.98-3.64-5.47-3.85-5.53-3.91-9.09-2.66-7.53-.85-4.35,1.82,3.18,4.45,7.76,3.14,5.07-1.23-2.41-2.41-4.87-3.57-7.36l.61,1.75c-3.3-5.84-4.06-6.14-8.89-17.49-2.91-7.29-.81-4.05-2.04-6.9.05-.01-.02-.26-.33-.93-.31-.67-.8-1.75-1.71-3.42-2.71-5.55-5.69-11.1-9.62-16.25.66,1.13,1.22,2.3,1.78,3.45.59,1.14,1.06,2.32,1.57,3.48-1.19-1.7-2.48-3.43-3.62-4.98-1.22-1.5-2.24-2.85-3.07-3.68-1.62-1.7-1.78-1.7.53,2.02-.81-1.38-2.13-3.28-4.1-5.36-1.98-2.05-4.56-4.39-7.91-6.25-3.31-1.9-7.29-3.39-11.55-4.12-4.22-.74-8.82-.66-13.08.06-4.29.7-8.31,1.93-12,3.19-3.69,1.26-7.05,2.56-10.03,3.59-5.96,2.15-10.44,3.13-12.19,3.23l-.95.26-.95.19-1.92.36c-.64.08-1.28.13-1.93.19-.65.06-1.3.13-1.95.1-2.62.06-5.27-.26-7.91-.94-5.29-1.35-10.49-4.24-15.32-8.61,1.14,1.14,1.91,2.27,1.3,2.2-.56-.11-2.78-1.22-6.64-5.58,2.43.61-1.08-3.26-4.78-9.09-3.78-5.78-7.63-13.61-8.65-18.27,1.18,4.05-2.46-3.31-5.31-10.46-1.46-3.56-2.75-7.01-3.58-8.79-.84-1.8-1.13-1.8-.43,1.53-1.55-4.72-1.42-4.95-1.07-4.92.32.04.86.33-.24-3.34-2.44-5.48-5.09-11.21-8.21-17.01-3.13-5.79-6.73-11.67-11.23-17.24-4.5-5.53-10.02-10.84-16.99-14.49-3.47-1.82-7.29-3.17-11.28-3.86-3.99-.69-8.08-.74-12.08-.1-.22.21,1.02.26,1.46.45.44.19.07.49-3.2,1.24-5.51.48-10.88,2.12-15.89,4.18-1.32.75-2.19,1.43-2.92,2.08-.72.66-1.35,1.23-2.09,1.91-1.48,1.31-3.56,2.82-8.26,5.17,1.4-.56,3.49-1.39.33.8-3.02,1.83-6.03,3.62-9.08,5.26-3.06,1.6-6.16,3-9.32,4.1-6.37,2.1-13.17,2.82-20,2.37-6.84-.43-13.66-2.13-20.31-4.41-6.65-2.31-13.14-5.3-19.43-8.72-12.56-6.86-24.59-15.35-37.55-22.53-6.47-3.62-13.21-6.92-20.35-9.45-.89-.31-1.78-.65-2.68-.94l-2.73-.82c-1.81-.6-3.69-.96-5.54-1.43-1.87-.41-3.76-.72-5.67-1.05-1.97-.26-3.95-.46-5.93-.5,4.29.31,4.97.7,3.8.69-1.17.06-4.21-.05-7.41.27,4.17-.13-.04.87.82,1.29-8.48.19-16.93,2.36-24.65,6.31-1.72,1.72-7.57,5.48-11.96,10.67-2.21,2.55-4.05,5.38-5.17,7.8-1.16,2.42-1.61,4.39-1.52,5.13.77-2.66,1.87-5.22,3.27-7.6-1.1,2.55-.82,3.12-.09,2.52.78-.58,2.19-2.21,3.96-3.82,1.73-1.63,3.84-3.2,5.52-4.14,1.67-.97,2.93-1.3,2.95-.72,1.8-2.05,4.4-3.94,7.54-5.49,3.13-1.56,6.81-2.74,10.72-3.59,3.93-.8,8.1-1.28,12.34-1.31,2.14-.03,4.23,0,6.44.21,1.1.09,2.22.15,3.34.22,1.12.12,2.24.22,3.38.29.96.28,1.21.46,1.09.51-.11.05-.6.02-1.15,0-1.09-.05-2.39-.15-1.4.28,1.15.02,2.35.08,3.65.32,1.3.22,2.73.46,4.28.94.78.23,1.6.48,2.46.74.86.29,1.76.65,2.71,1.02.95.36,1.96.77,3,1.26,1.04.49,2.16.96,3.31,1.56-.38-.11-.76-.21-1.15-.3,6.65,2.91,12.13,6.04,17.14,9.04,5.01,3.02,9.54,6,14.19,9.05,4.66,3.04,9.42,6.22,15.06,9.51,2.81,1.65,5.84,3.3,9.16,4.97,1.65.85,3.43,1.62,5.24,2.48,1.86.77,3.76,1.63,5.81,2.37-.71-.57-1.4-1.17-2.07-1.79,1.7.74,3.12,1.2,4.28,1.68,1.16.48,2.1.82,2.94,1.12,1.66.61,2.83,1.15,4.53,1.65,2.19.16,1.99-.08.6-.52-1.4-.39-3.93-1.17-6.47-1.95-5.05-1.7-9.95-3.87-6.09-3.15,2.07,1.37,6.23,3.13,11.52,4.68,5.29,1.53,11.8,2.64,18.33,2.62,6.52.02,12.97-1.13,18.01-2.75,5.06-1.59,8.65-3.32,10.43-3.62,5.05-2.86,4.11-2.71,3.27-2.5-.89.17-1.67.42,3.13-2.56l2.82-1.11,1.94-2.17c6.14-3.91,9.54-4.96,10.01-4.67-1.48.78-4.05,2.6-5.59,3.65,4.08-2.23,9.44-5.53,14.3-7.53,4.85-2.11,9.2-2.62,10.61-2.54h-1.15c-.38.02-.76.09-1.14.12-.76.09-1.53.12-2.29.25l-2.29.45c-.77.15-1.52.42-2.29.62,6.31-2.43,13.58-2.78,20.37-.46,3.41,1.11,6.66,2.92,9.7,5.15,3.05,2.23,5.86,4.91,8.43,7.85,5.15,5.89,9.4,12.71,13.02,19.6,3.62,6.92,6.61,13.9,9.26,20.6l-.31-2.22c4.13,10.49,5.78,14.68,7.54,19.14.89,2.24,1.83,4.54,3.34,7.65,1.53,3.1,3.55,7.05,7.13,12.27l-.6-.7c3.16,3.98,7.36,9.33,12.58,14.08-1.28-1-1.41-.95-.97-.37.22.29.58.71,1,1.19.43.47.96.98,1.46,1.49,2.06,1.98,4.09,3.75.36,1.35,5.37,3.87,9.35,5.39,11.95,6.28,1.33.38,2.32.69,3.13.84.81.15,1.42.25,1.95.32,1.08.12,1.89.09,3.5.14,1.61-.08,4.04.08,8.23-.62,1.31.2,2.61.22,3.95.33,1.39-.41,2.43-.77,3.43-1.09.98-.38,1.9-.72,3.03-1.11,2.23-.84,5.3-1.9,11.02-4.1-9.27,4,7.78-1.59-2.59,3.02,6.28-1.81,11.4-3.66,15.92-4.87,4.5-1.24,8.39-1.89,11.87-1.88,7.04,0,12.56,2.12,16.08,6.13,1.23.5,1.85.85,2.12.83.26,0,.11-.31-.33-.81-.43-.51-1.23-1.1-2.17-1.85-.46-.39-1.04-.67-1.6-1.04-.58-.33-1.15-.75-1.81-1.01-.64-.3-1.29-.6-1.94-.89-.65-.27-1.33-.46-1.96-.68-1.25-.48-2.48-.64-3.4-.88-.92-.25-1.61-.27-1.86-.34-.25-.05-.07-.06.7-.03-1.25-.31-1.31-.5-.56-.59.76-.15,2.3.06,4.25.34.95.23,2,.52,3.1.82,1.05.43,2.18.82,3.24,1.35,2.12,1.07,4.11,2.39,5.57,3.68,3.04,2.55,4.92,5.49,7.23,9.76,2.29,4.32,4.99,10.01,9.23,19.23-.84-1.83-1.04-1.89-1.89-3.71,2.79,7.02,6.71,13.32,9.74,22.41,3.24,4.39,5.13,11.37,7.28,12.05-2.99-5.66-5.66-11.45-8.27-17.2,2.32,4.85,4.91,9.44,7.96,14.76,1.55,2.65,3.15,5.51,5.04,8.63,1.88,3.11,3.93,6.55,6.54,10.24-1.13-.9-4.64-5.04-6.7-8.13,2.35,4.8,5.8,8.43,9.17,12.88-.59,0-1.84-1.18-3.56-3.05-.8-.97-1.74-2.1-2.68-3.4-.91-1.31-1.94-2.73-2.88-4.28-3.92-6.13-7.52-13.73-10.46-18.78.83,2.7,3.45,7.61,5.52,11.19.51.9.98,1.72,1.37,2.4.4.68.71,1.24.88,1.61.34.75.12.8-1-.3,3.06,3.22,5.71,7.75,9.48,12.6.97,1.19,1.92,2.46,3.06,3.64.56.6,1.11,1.22,1.71,1.82.63.57,1.26,1.15,1.91,1.73,1.26,1.2,2.74,2.2,4.22,3.25.73.54,1.56.94,2.36,1.41.82.43,1.61.92,2.49,1.26-.45.12-.9.23-1.34.31.51.31,1.23.6,2.02.97.8.35,1.67.81,2.65,1.19.97.38,2,.79,3.04,1.2,1.04.4,2.12.73,3.14,1.12-2.63-.47-5.25-1.16-7.84-2.04,5.75,2.41,11.34,4.42,17.1,5.67,5.74,1.25,11.62,1.75,17.42.95-3.05.25-5.44.32-7.29.23-.93-.03-1.72-.04-2.39-.1-.67-.07-1.23-.14-1.69-.2-1.82-.25-2.05-.44-1.84-.61.22-.17.87-.33.83-.55-.04-.22-.77-.42-3.27-.97,7.41.69,12.13.28,15.6.2,3.47-.15,5.71-.22,8.09-.27,1.18-.07,2.4-.13,3.81-.26,1.39-.2,3-.41,4.94-.85.96-.23,2.01-.51,3.17-.82,1.15-.33,2.39-.77,3.76-1.24,1.38-.46,2.82-1.11,4.43-1.77,1.59-.7,3.3-1.53,5.14-2.47-.98.55-2.46,1.2-4,1.88-1.55.65-3.21,1.22-4.52,1.66-2.68.79-4.01.96-.82-.45,1.47-.54,3.05-1.15,4.65-1.76,1.57-.68,3.21-1.31,4.72-2.02,3.05-1.36,5.77-2.73,7.57-3.51,4.63-2.95,6.56-4.6,7.22-5.15.61-.61-.1-.21-1.18.35-2.13,1.16-5.57,3.09-1.94.23.84-.41,1.6-.82,2.3-1.24.7-.43,1.32-.88,1.91-1.33.59-.45,1.15-.91,1.69-1.39.53-.48,1.03-1,1.55-1.53.51-.53,1.02-1.08,1.56-1.65.52-.59,1.07-1.21,1.65-1.87,1.19-1.29,2.46-2.81,4.06-4.54l.74.62c2.19-2.19,3.83-3.97,5.03-5.47,1.25-1.46,2.04-2.64,2.63-3.53,1.19-1.77,1.38-2.55,1.56-3.23.3-1.39.75-2.4,6.46-11.51-1.13,2.85-2.29,5.69-3.57,8.55,1.95-3.3,3.74-6.59,5.49-9.9l-.2,2.56c2.69-5.52,4.46-9.08,6.34-12.56,1.88-3.48,3.84-6.86,6.76-12.03-1.9,2.12-.81-2.19,4.04-11.48,3.83-6.07-1.05,3.97,5.73-9.25-1.02,3.25-2.06,6.86-5.86,12.18-.03.73-1.01,3.21-1.05,3.96,4.18-6.52,9.14-17.08,11.63-21.84-.99,1.82-2.19,3.99-2.9,5.05l8.82-19.68c1.9-2.83.9-.32-.08,2.17,1.94-3.91,2.95-6.78,5.88-12.48-.08,1.83.81,1.86-3.1,10.05l8.84-18.5c.94-1.05,5.8-8.81,4.8-6.33,5.79-9.75,11.98-25.16,20.06-37.83.26-.75.91-2.18,2.44-4.98,3.66-6.03,7.34-11.55,11.14-17.36,3.81-5.8,7.75-11.88,12.09-18.92,2.2-2.26,4.41-4.5,6.67-6.63,3.8-5.08,1.55-2.91-.12-1.6-.82.68-1.48,1.14-1.15.36.16-.4.58-1.1,1.37-2.22.78-1.13,1.94-2.69,3.63-4.74,2.37-2.91,3.95-4.44,4.92-5.28.97-.85,1.39-.94,1.59-.87.4.18.04,1.2,1.99-.33,1.18-1.27,2.61-2.75,4.28-4.09.42-.3.84-.61,1.28-.93.43-.26.88-.52,1.33-.79.22-.1.44-.2.66-.3l.34-.16.31-.09c.21-.07.42-.14.63-.21.19-.02.37-.04.56-.08.09-.05.64-.05,1.02-.07.41-.01.83-.02,1.25-.04.83-.01,1.69-.05,2.56-.11.87-.05,1.75-.09,2.65-.19.9-.07,1.8-.17,2.71-.29.91-.1,1.82-.25,2.68-.36.84-.12,1.67-.22,2.07-.22.36-.01.72.1,1.04.24.16.08.3.18.45.29l.56.46c-.27-.12-.6-.32-.78-.36l-.28-.1c-.1,0-.2-.02-.29-.05-.19-.04-.38-.05-.56-.03-.11,0-.15,0-.31.02l-.57.08c-1.01.15-2.01.3-3.03.46-1.12.15-2.28.31-3.48.42ZM794.2,516.8c-.76-3.09-2.38-9.22-2.18-11.59,1.67,3.38,1.55,6.21,2.18,11.59ZM951.38,610.31c-1.83-1.47-4.15-4.21-6.77-7.28,2.16,1.97,4.42,4.42,6.77,7.28ZM1507.24,656.37c-.13-.05-.22-.08-.32-.12-3.02-1.88-4.04-2.43-3.73-2.26.32.17,1.93,1.11,4.05,2.38ZM1519.83,663.98c1.34.62,1.32.46.85.03-1.02-.3-3.85-1.96-7.09-3.87.79.73,2.35,1.83,6.24,3.84ZM449.98,559.85c.33.91.68,1.81.99,2.72-3-5.77-2.01-4.23-.99-2.72Z"/>
      <path d="M930.22,593.42c-.62-.58-.73-.85-.82-1.09-.55-.19-.85-.25-.76-.1.09.17.6.45,1.58,1.18Z"/>
      <path d="M669.55,454.92l-.26.42c-.09.26-.11.42-.1.51l.35-.93Z"/>
      <path d="M1331.23,723.67c-2.1,2.2-3.35,3.36-4.24,4.07.06.28,1.16-.6,4.24-4.07Z"/>
      <path d="M1587.8,698.07c-1.43-.42-2.84-.95-4.25-1.45-1.41-.51-2.84-.98-4.23-1.56,2.01.87,3.4,1.37,4.49,1.89,1.11.49,1.94.95,2.96,1.37-.11-.28-1.62-1.14,1.04-.24Z"/>
      <path d="M1665.21,703.7c.63-.28,1.31-.51,1.99-.75.68-.25,1.34-.53,1.95-.82l-.51-.28c-1.34.56-2.6.99-3.63,1.39-1.03.4-1.83.73-2.27.94-.9.43-.4.41,2.47-.48Z"/>
      <path d="M1594.8,703.67c.23.5,1.75,1.11,4.02,1.64,1.13.27,2.44.6,3.87.86,1.43.23,2.97.48,4.55.74-.38-.07-.74-.14-1.11-.21,1.02-.38-.15-.8-2.41-1.23-1.14-.18-2.53-.49-4.06-.79-1.53-.3-3.21-.58-4.86-1.01Z"/>
      <path d="M1608.71,707.11c1.96.21,3.95.48,5.87.72.79-.35-2.36-.37-5.87-.72Z"/>
      <path d="M1536.02,672.99c2.55,1.76,2.2.1,3.53,1.28,3.5.9-18.36-9.51-3.53-1.28Z"/>
      <path d="M1599.19,707.57l-2.02-1.52c-1.25,0-2.48-.13-3.72-.2.95.3,1.89.65,2.86.92l2.89.8Z"/>
      <path d="M1552.11,687.03l4.5,2.64,4.55,2.55c-.06-.22,1.15.31,2.65.96-5.72-2.91-11.76-6.53-11.69-6.15Z"/>
      <path d="M1563.8,693.18c1.49.75,2.94,1.49,4.26,2.09,1.32.59,2.48,1.08,3.36,1.4-.82-.37-2.12-.96-3.51-1.59-1.39-.65-2.87-1.36-4.1-1.9Z"/>
      <path d="M1585.41,703.78c-.96-.39-1.89-.82-2.83-1.27l-3.43-1.37c-1.14-.45-2.26-.98-3.38-1.47,1.58.74,3.17,1.47,4.79,2.12,1.62.65,3.2,1.4,4.85,1.98Z"/>
      <path d="M1450.61,640.31c-1.92-.11-3.83-.31-5.75-.25-1.92.03-3.83-.07-5.75.12-.58.2-.08.31,1.08.34,1.17.02,3,.14,5.13.11,1.38-.14,3.12,0,4.31-.02,1.19,0,1.83-.06.97-.3Z"/>
      <path d="M1483,651.78c-2.74-1.35-2.84-1.66-4.34-2.55l-.76,1.04c1.72.43,3.4.99,5.11,1.51Z"/>
      <path d="M1451.51,643.44c-.29.06-1.44.06-2.79.05-.67,0-1.39-.02-2.08-.02-.69.02-1.34.07-1.87.1-1.06.07-1.65.14-1.1.21.55.1,2.24.03,5.71.39.29-.06,1.19-.06,2.23-.05,1.04.02,2.21.16,3.03.2,1.65.12,1.91-.05-3.14-.88Z"/>
      <path d="M1316.65,734.41c.69-.69,1.38-1.36,2.04-2.07l-1.74-1.13c-.08,1.08-.19,2.12-.3,3.2Z"/>
      <path d="M1179.64,731.26c1.01,1.43,1.91,2.48,2.63,3.29.71.82,1.25,1.39,1.67,1.81.84.83,1.2,1.01,1.53,1.16.68.29,1.21.45,5.52,5.17,2.63,2.01-6.99-7.73-4.29-5.61-2.98-2.98-5.17-5.36-6.28-6.6-1.16-1.21-1.46-1.17-.78.78Z"/>
      <path d="M1186.69,737.08c1.01.91,2.09,1.86,3.25,2.85-1.81-1.65-2.69-2.4-3.25-2.85Z"/>
      <path d="M14.77,414.19c-2.17,2.45-4.1,5.2-5.64,8.22,1.15-1.87,2.37-3.66,3.78-5.26.56-1.03,1.22-1.97,1.86-2.96Z"/>
      <path d="M8.32,431.7c-.59.68-1.05,1.4-1.57,2.15.06,1.02.29,2.03.45,3.03.19.99.47,1.96.71,2.91-.09-1.09-.25-2.7-.16-4.26,0-.78.11-1.53.21-2.2.09-.67.21-1.23.37-1.63Z"/>
      <path d="M796.69,541.38l.48.58c-.04-1.42-.47-3.45-1.4-7.52l.92,6.94Z"/>
      <path d="M772.52,427.2c.19.52.42,1,.58,1.55.01-1.12-.02-2.23-.15-3.34-.14.62-.24,1.19-.43,1.79Z"/>
      <path d="M710.03,398.92c2.56-2.7,5.51-5.93,8.18-7.72-.69.51-1.38,1.08-2.03,1.56-.66.53-1.29,1.03-1.86,1.5-.59.48-1.14.92-1.63,1.33-.5.42-.94.81-1.33,1.14-1.57,1.36-2.2,2.08-1.32,2.2Z"/>
    </g>
  </g>
  <g id="b" data-name="Layer 2">
    <g>
      <circle cx="1668.58" cy="100.02" r="95" style="fill: #ffcb00;"/>
      <g>
        <path d="M1760.92,99.88c.35.31,1.13.13.95-.72l-1.34-.58.39,1.3Z"/>
        <path d="M1763.17,94.07c-.72-.98-1.93-2.03-3.09-1.29,1.34.88.83,1.15,2.42,2.13.2.85-.38,1.51-.86,1.39.35.29-.26,1.33.59,1.77.97-1.13,1.05-2.58.06-4,.27-.33.63-.05.88,0Z"/>
        <path d="M1724.63,21.06l.36.45c-.07-.16-.2-.31-.36-.45Z"/>
        <path d="M1674.96,2.67c.41,0,.59-.12.62-.24-.39.06-.7.12-.62.24Z"/>
        <path d="M1665.73,1.05c.2.04.37.05.55.08-.21-.12-.43-.18-.55-.08Z"/>
        <path d="M1724.63,21.06l-.93-1.17c-.33.3.42.69.93,1.17Z"/>
        <path d="M1758.6,83.11c.11.27.28.48.47.66-.1-.22-.18-.43-.26-.65-.07,0-.14,0-.21,0Z"/>
        <path d="M1742.82,36.19l.29.33c.2,0,.42-.03.65-.07l-.94-.26Z"/>
        <path d="M1753.56,50.97c-.17-.38-1.21.06-1.71.17.51-.03.86.12,1.11.39.19-.1.38-.27.6-.56Z"/>
        <path d="M1762.25,78.34l.27.46c-.08-.12-.17-.32-.27-.46Z"/>
        <path d="M1733.82,26.68c.09-.14.14-.3.14-.41-.09.11-.13.25-.14.41Z"/>
        <path d="M1756.19,119.37c.08.03.13.02.2.04-.09-.12-.16-.17-.2-.04Z"/>
        <path d="M1763.87,100.11l.05.29c.21.03.42.06.63.06l-.68-.35Z"/>
        <path d="M1648.5,1.55s.05,0,.08,0c.42-.21.17-.14-.08,0Z"/>
        <path d="M1571.19,121.13c.59-1.93,1.91,2.52,2.4-.3-.37.35-2.26-2-2.4.3Z"/>
        <path d="M1758.67,82.65c-.05-.23-.1-.46-.13-.69.02.32.06.53.13.69Z"/>
        <path d="M1573.59,120.83h0s.04-.29.04-.29c-.02.12-.03.19-.05.29Z"/>
        <path d="M1612.34,17.57c.18.12.39.15.61.17-.08-.09-.23-.15-.61-.17Z"/>
        <path d="M1639.31,6.25l-.73.09c.3,0,.53-.03.73-.09Z"/>
        <path d="M1601.49,28.32c-.34.21-.55.19-.83.66.08,0,.14,0,.21-.01.03-.24.17-.47.62-.65Z"/>
        <path d="M1590.93,39.93c.12-.01.24-.06.36-.09.08-.13.18-.29.26-.43l-.62.52Z"/>
        <path d="M1737.41,158.4c.45-.03.84.04,1.21.14-.76-.35.41-2.13-1.21-.14Z"/>
        <path d="M1759.22,82.99c-.29-.03-.45-.13-.55-.34.04.16.09.32.15.47.17.01.33,0,.41-.13Z"/>
        <path d="M1607.13,35.2l-1.76,1.45c.54-.36,1.18-.89,1.76-1.45Z"/>
        <path d="M1643.57,186.92h.54c-.19-.07-.38-.09-.54,0Z"/>
        <path d="M1600.91,41.72c-.57.05-1.03.23-1.43.47,0,.13-.01.26.05.39l1.39-.85Z"/>
        <path d="M1738.63,158.55s-.01,0-.01,0c0,0,0,0,.01,0Z"/>
        <path d="M1745.1,144.7c-1.1,1.84.74,1.62,1.23,2.46-1.06,2.43-1.58.45-2.69.78-.27.78-.29,1.62-.33,2.4-.07.76-.16,1.45-.54,1.93-.25-.07-.46.08-.55-.33,0,2.13-2.99,4.13-3.13,6.63-.2.03-.34,0-.46-.03.78.23,1.4.66,1.76,1.06-.64.78-.53,2.03-1.51,1.69.43-.45.17-.74.13-1.16l-.37,1.07c-1.67-.2.58-1.4-.2-2.07-.49.91-.91,2.01-1.38,3-.5.96-1.06,1.81-1.74,2.25-1.2-.71,2.19-2.96-.13-2.28.69-.45,1.35-.93,2-1.43-2.8-.04,1.06-.99-1.75-1.25-1.14,1.05-1.66,1.75-2.12,2.51-.48.74-.92,1.53-2.2,2.44.02,1.03.95.64.96,1.67-.58,1.02-1.18,1.54-1.77,1.78-.6.23-1.18.18-1.72.12-1.08-.12-1.99-.32-2.63,1.44-.07,1.22.73,2.77-1.69,3.52l-.31-1.71c-2.46,1.75-.06,2.82-3.26,3.87.12-.83,1.66-1.8,1.18-1.69-2.38.2-.68,1.55-1.99,2.49l-1.03-.94c-2.56,1.93-5.09,4.67-8.23,6.52,0-.45.34-1.11-.6-1.09-1.83,1.37-4.07,2.31-6.33,3.07-1.15.33-2.32.62-3.45.87-1.13.27-2.29.39-3.36.56l-1.2,1.65c-.37.11-.84-.31-.51-.64-1.75.03.13.74-.52,1.4-.91.34-1.42-.3-.93-.8-2.52,1.89-7.85,4.13-11.19,3.4l.55-.45c-2.48-.09-2.44,2.75-4.87,1.98l.42-.26c-2.71.01-5.52.38-8.2.38-.67.01-1.33.02-1.97,0-.64-.05-1.27-.12-1.88-.21-1.21-.2-2.35-.44-3.33-.98-.43.81-1.75.52-3.01.32-1.26-.17-2.45-.41-2.77.76-1.46-.78-1.94-1.24-2.59-1.67-.64-.46-1.43-.92-3.45-1.67-1.09-.29-1.95,1.1-3.41,1.03l.24-1.21-2.18.83c-.22-.55-.42-1.12-.62-1.69l-1.35-.06c.49.21.93.84.76,1.16-1.08-.02-2.25-.57-3.12-1.2-.86-.65-1.41-1.4-1.33-1.7l-2.48-.29c-.83-.1-1.64-.26-2.47-.39.28-.42,1.11-.28,1.81-.34-2.87.22.03-1.38-2.6-1.18.19.38-.44.62-.58.83-.42-.55-1.23-1.12-2.19-1.62-.95-.51-2.07-.88-3.03-1.21l.71-.59c-1.54-.94-3.3-1.63-5.04-2.53-.87-.44-1.78-.85-2.66-1.32-.87-.5-1.74-1.01-2.59-1.56,1,1.11-.06,2.18-1.16,1.64l.31-1.35c-1.1.25.79,1.09-1.11,1.05-1.19-1.01,0-1.81.94-1.66l-1.76-.7c.14-.38.61-.3.98-.64-1.09.21-1.81-2.85-3.48-2.43l.16-.37c-.79-.62-1.49-1.14-2.13-1.59-.63-.47-1.2-.89-1.76-1.3-1.12-.8-2.18-1.54-3.37-2.67-.82.77-1.59-.3-2.95-.35-.72-1.02-1.39-2.17-2.14-3.32-.73-1.16-1.48-2.38-2.48-3.45-1.75-1.23-1.12.14-2.23-.17.7-.77-1.19-3.02.33-2.27-1.18-1.32-1.85-2.22-2.68-3.15-.42-.47-.87-.95-1.42-1.51-.52-.59-1.14-1.26-1.92-2.09-.09.64.06,1.2-.39,1.15-.59-.61-.65-1.81-.17-1.96l.21.13c-1.98-1.75-2.81-4.7-3.42-7.47-.36-1.37-.59-2.74-1.02-3.91-.21-.59-.46-1.13-.77-1.61-.29-.49-.63-.93-1.06-1.29l.18.17c-.83-1.15-1.75-2.28-2.51-3.48-.44-1.87,1.09.83,1.24-.72-.76-.91-1.27-1.8-1.64-2.65-.33-.87-.51-1.71-.68-2.53-.36-1.63-.49-3.2-1.46-4.87.29-.43.47-.9.56-1.4.11-.51.15-1.05.13-1.62-.03-1.14-.37-2.38-.62-3.66-.25-1.29-.56-2.6-.69-3.85-.08-1.25,0-2.43.4-3.4l-.69.26c-.77-.94.3-1.21.46-1.94-.55.12-.61,1.1-1.01.5-.58-4.18-.3-8.57.57-12.85.9-4.28,2.13-8.47,3.5-12.47.42-1.48-.31-2.13-.88-2.85-.56-.71-.9-1.51.46-3.18l.96,1.46c.01-1.63.42-3.18.83-4.74.43-1.55,1.09-3.03,1.68-4.52.66-1.47,1.36-2.91,1.96-4.38.68-1.44,1.23-2.92,1.69-4.45.08.47.42.66.14,1.2,1.45-.69,2.43-4.15,1.77-4.6.6-.77.73.18,1.39-.11,1.19-.78.73-3.45,1.94-3.48.2,0,.04.47-.03.71.1-.96,2.39-3.16,1.02-3.15.87-.81,1.47-1.75,2.04-2.64.58-.89,1.09-1.77,1.97-2.24-.13-1.72,3.03-2.64,2.04-4.07,1.23,1.35,3.83-1.98,4.37-3.57.02.73,1.32-.48,1.42.47,1.17-1.19,2.13-2.42,1.29-2.93,1.9-.2,2.74-1.56,3.64-2.68.87-1.13,1.66-2.16,3.2-1.53,3.4-3.76,7.11-6.72,10.95-9.23.35.86-.77,1.41-1.77,2.08-1.02.65-1.99,1.29-1.42,2.05.82-.69,1.53-1.37,2.19-2.03.67-.64,1.31-1.23,1.97-1.81,1.29-1.18,2.74-2.12,4.78-2.8,1.11-.23-.26.98-.47,1.41,1.77-1.27,3.76-1.91,5.62-2.66.95-.33,1.89-.64,2.8-1.02.9-.38,1.78-.81,2.64-1.29.04.16-.31.45-.64.69.71-.26,1.75-.22,1.45-.99l-.65.41c-1.52-.8,2.23-3.22,2.23-3.87-.68,2.57,3.9-.29,2.58,3.06.44-.26.97-.78.73-1.29.76-.01,1.05.25.46,1.03,1.26-.53,1.62-.94,1.97-1.26.35-.34.68-.61,1.89-.82.06.39-.4.63-.57,1.14,1.08-.97,2.2-2.01,4.33-1.9-.09.25.19.53-.43.6,1.76-.28,3.21-1.02,4.76-1.51,1.54-.53,3.17-.97,5.17-.61-1.12,1.75,1.36.53,1.58,2.02.7-.18,1.39-.32,2.1-.44l-.84-.75c1.84.09,3.53-1,5.12-.41-.47.16-.94.35-1.41.55,1.16-.08,2.32-.03,3.49-.06l-1.93-.72c1.94-.62-.09-1.9,2.4-1.29-.53.12,1.9.13,2.77,1.17h0c.97-.35,2.01-.73,3.34-.18.29.52-.53,1.6-.35,1.94,1.09-1.09,4.34.39,5.74-.66-.44.22-.62.98-.53,1.17l.96-.82c.78.51.87.69.59,1.27,2.49.77-.38-2.03,2.46-.54-.26.02-.18.2-.71.23,2.9,1.16,5.99.96,8.55,2.39.3,1.69-2.47-.45-1.97,1.06,3.93.94,8.57,1.3,12.04,3.35-.2-.16-.39-.33-.59-.48,1.44-1.65,2.19,2.28,4.42,2.33-.5-.11-1.13.73-.9.58,1.1.81,2.35,1.39,3.84,1.95,1.46.61,3.14,1.21,5.05,2.1l-.73.15c1.02,1.35,3.32,2.63,4.49,3.94.74-.11,1.47.57,1.48-.42.29.72.64,1.33,1.05,1.87.38.56.82,1.04,1.29,1.47.94.86,2.06,1.49,3.1,2.19,1.05.69,2.15,1.33,3.02,2.17.86.85,1.56,1.86,1.9,3.15-.4-.41-1.28-.65-.97-.32,1.07.83,2.04,1.77,3.06,2.67.49-.84.08-.76.06-1.89.75.03,1.84.63,2.51,1.41-1.69-1-1.11.96-1.03,1.9.14-.28.55-.27.73-.5.03,2.7,1.67-.88,2.62,2.12l-.48.17c.89.69,1.96,1.17,2.55,2.21-.59,1.02-1.08-.66-1.84-.21.98,1.3,3.59,1.49,3.49,3.37-.62-.43-1.18-1.28-1.84-1.68-.08,2.02.22,2.03.72,3.14l-.04-.11,1,2.63c-.02-.26-.05-.51-.08-.77,1.74.13,2.35,1.01,2.94,1.99.29.49.56,1.02.95,1.52.37.51.84,1.01,1.57,1.42-2.77-1.62-1.09.07-2.26.44.02.78.17,1.89-.27,1.78.73.35.81.92.96,1.52.13.61.33,1.25,1.35,1.78-.32.24.54,1.28-.48,1.4.97,1.4.46-.63.96-.7,1.18.9,1.34,2.51,1.64,4.18.33,1.66.57,3.46,2.06,4.95.86,1.42,1.57,2.22,2.33,2.98.75.77,1.48,1.53,2.13,2.96-.37,1.15-1.57-.49-1.57-.49-.2,1.75.22,2.91.95,4.35-.39-.24-.61.13-.96.68.32,1.2,1.54.56,1.27,2.28-.48-.21-1.23-.45-1.76-.95.3.68.7,1.34,1.1,2.02.37.68.72,1.38,1,2.11-.62.48-1.14-.77-1.64-1.23.5,1.62,1.19,4.25,2.25,4.69.1-.38.21-.76.29-1.13.11.62-.88.41-1.13-.02-1.02-1.35.1-2.12.48-2.26l.39,1.05c1.07-.69.83-1.78.32-2.96-.53-1.17-1.42-2.4-1.54-3.48l1.8.6-1.75-1.97c.32-.55,1.17-1.08,1.63-.04.48-1.74-.89-1.25-.29-2.79.1-.18.2-.13.29,0l-.83-1.41c.41.22,1.08-.54,1.07.46.17-1.5-.46-2.53-.98-3.34-.52-.81-.93-1.41-.47-2.11l.16.2c-1.71-3.57-1.27-.02-3.54-2.32.74-.93,1.48-1.89,2.21-2.86l-1.27.05c-.11-.39-.31-1.16.2-1.2-1.33-1.1-.4.43-1.46-.1.16-1.09-.42-2.3-.91-3.34-.5-1.03-.82-1.93-.02-2.54-1.13-.24.11,1.98-1.33.37.83-.71.5-1.22-.02-1.8-.55-.57-1.29-1.19-1.26-2.19,1.21-.01,1.47,1.76,1.52-.27-1.06-.07-1.36-.88-1.54-1.84-.19-.95-.29-2.02-.81-2.6-.65.33-1.19-.3-1.77-1.26-.61-.94-1.32-2.19-2.2-3.12.53-.15-1.99-4.38-3.06-6.56l.24-.09c-1.47.55-2.68-1.58-4.09-2.69.72-.52,1.19-.5,2.12-.02l-1.1-1.27c-.62,0-1.15-.23-1.98-.93l1.1-.41c-.74-.84-1.75-1.45-2.75-2.16-1.01-.71-1.93-1.58-2.73-2.81-.82.64-.39,3.56-3,2.03.31-.47.88-1.24,1.6-.86-.24-.12-.98-.3-1.18-.82l1.51.15c-.65-1.19-1.03.1-1.71-.67.55-.56-.17-.94.36-1.3.24.13.43.86.93.91-.74-.92-1.46-2.23-1.44-2.97-.22.4-.71.79-1.42.31-1.71-1.41.05-1.22-.68-2.38-.75.05-1.52-1.26-2.29-.37-.51-.41-.26-.91-.26-1.32-.62-.14-1.69-.98-2.61-1.48-.93-.5-1.65-.74-1.49.14l.19.24c-.06-.01-.11-.05-.18-.07h0s0,0,0,0c-.93-.3-1.77-.77-2.55-1.32-.79-.53-1.56-1.13-2.3-1.76-1.47-1.29-3.02-2.51-4.75-3.22l.2-.34c-1.06-.38-2.22-.84-3.29-1.28-1.08-.42-2.11-.78-3.01-.7-.59-.27-1.1-1.29-.66-1.6-1.69-.42-1.99-.14-4.04-1.63,1.86,0-.32-.78,1.83.18-1.94-1.12-2.19-1.94-4.81-1.76,1.12-.69-1.17-1.74-2.28-1.8l1.25,1.19c-1.18-.24-2.13-.67-3.11-1.08l.95-1.09c-.98-.75-2.05-1.05-3.1-1.21-1.06-.15-2.1-.15-3.12-.08-2.03.12-3.81.06-5.3-1.54-1.37.7,2.33,1.08,1.05,1.96-2-.54-3.86-2.82-4.53-2.92-2.81-1.08-2.94,1.54-5.88.75.35.5.57,1.79-1.66,2.07-2.03-.33-2.43-2.18-1.08-2.46.51,0,.74.17.71.33.69-.12,1.6-.26.81-.83l-.31.45c-.5-.28-1.48-.46-2.25-.67-.77-.18-1.32-.37-.96-.75-1.63.41-.71.76.46,1.04-2.69-.73-4.24-.2-7.04-.55.45.25.87.8.43.8-4.1-.46-1.77.89-4.49,1.29-1.6-.6.44-1.77-2.29-.95-1.74-.36-.48-1.23.18-1.66-.62.28-1.24.39-1.83.44-.59.06-1.16.02-1.71-.05-1.09-.15-2.08-.45-2.83-.44l1.31-.55c-.78.34-1.45.39-2.13.51.31.26.61.54.91.83-.82-.07-1.48.08-1.53-.32-.7.76.86,1.45-.58,2.57-1.12-.28-3.03,1.04-3.63-.07,3.33-.22-.62-1.19,2.12-1.9-.51.25-1.17.35-1.99.34-.15-.11.06-.29.26-.39-3.39-.39-1.15,1.72-4.36,2.43.23-.79-1.08-1.13-1.57-.82,1.3-.35.91.97-.11,1.83-2.18.04-2.08,1.02-3.15,1.26l1.28-.1c-.21.79-1.23.98-2.52,1.68-.29-.49,1.13-.78.56-.85-1.11,1.71-3.9-.1-5.71,1.56-1.15-.06-.58-1.21-1.57-1.17-2.04,1.77-2.95.2-5.13,1.99,1.12.54,1.13.28-.19,1.9l3.73-2.42-2,2.43c1.2-.52,2.28-1.71,3.08-1.85-.93,1.22-.88.98,0,1.44-2.2-.56-2.89,2.17-5.13,2.23l-.99-2.15c-1.64.26-2.79,1.15-3.95,2.21-1.14,1.1-2.38,2.21-4.25,3.06.44-.12.88-.25,1.33-.35.02,1.08-2.05,1.46-2.96,2.49-.33-.72-1.19-.52-1.94-.61.39.44-2.5,1.71-1.87,3.2-.69.07-1.41.13-2.09.24-2.88,1.73-1.59,4.05-4.09,5.9.15-1.27-1.3-.75-.09-2.61-.81.69-1.63,1.21-1.28,1.63-.39.02-.79.69-1.2,1.39-.41.71-.86,1.42-1.47,1.48-.08.56.39,1.25-.51,2.01-.21-.03-.27-.28-.27-.28.25.27-.91,1.68.41,1.56-.99.14-1.87.63-2.68,1.29-.41.33-.8.7-1.17,1.1-.36.41-.71.84-1.05,1.27-.68.86-1.36,1.71-2.06,2.41-.68.72-1.41,1.27-2.26,1.5-.31.49-.63,1-.95,1.53-.31.53-.63,1.07-.95,1.61-.62,1.07-1.29,2.09-1.83,2.97-.12-.24-.32-.22-.04-.51-2.16,2.03.93,2.71-1.46,5-1.94.77.29-1.84-.65-1.2-1.24-.5-1.65.43-2.07,1.59-.41,1.17-.83,2.56-1.98,3.2l.11-.55c-1.55,1.12-1.06,4.12-2.31,6.55,0,0-.15-.22-.35-.18.21,1.13.05,2.54-.16,4.01-.22,1.47-.64,2.94-.85,4.25-.7-1.11-.12-1.31-1.26-1.18-.24,1.17,1.67.24,1.2,2.54-.76.54-1.79,1.98-2.88,1.89.17-.73.43-1.43.64-2.15-.86.32-1.1,1.02-1.15,1.76-.05.75.05,1.54-.23,2.08l-.56-.32c-.78,3.39.82,3.82-.13,7.35l.55-.27c1.11,2.24-1.17,1.47-.4,3.63l-1.66.33c.04.34.1.81.17,1.37.09.55.2,1.18.31,1.85.22,1.33.35,2.75.42,3.93-1.07-1.43-1.27-4.26-1.74-6.09-.2,1.31-.46,4.49.23,5.25-.09-.54-.39-1.25-.08-1.74.98,1.75,1.49,3.88,1.25,6.44-1.54-.32-1.78,1.38-1.93,3.39-.21,2.01-.1,4.3-1.28,5.31.16.58.27,1.16.36,1.75.11.58.18,1.16.23,1.75.11,1.17.08,2.37.09,3.58.06,2.43,0,5.01.62,7.7,2-2.34.35,1.56,2.69.76.37,1.2.48,1.66.34,1.81-.19,1.33-.39,2.69-.55,4.06-.22.53-.43.27-.65-.09-.2-.36-.41-.83-.66-.71.5,2.78-.71,1.4-.84,3.39.74-.6,1.47.61,1.6,2.25l.46-2.49c1.15,1.7.9,2.65.7,3.61-.22.96-.43,1.96.82,3.63l-1.13-.93c1.05,1.79,2.73,7.11,5.38,8.07-.11.44-.52,1.16-1.05.42.41,1.15,1.09,2.26,1.83,3.34.74,1.08,1.52,2.16,2.36,3.15.82,1.01,1.58,2,2.21,2.96.66.95,1.17,1.89,1.43,2.84l-.7.02c.65.67,1.76.72,1.93,1.96-.24.09-.7.04-.49.4.45.28,2.24,1.35,2.65,2.53l-1.14-.43c1.05,2.17,2.58,3.31,4.05,4.32,1.55.95,3.12,1.7,4.57,3.01-1.3,1.15.81,4.31,1.98,5.79l-.22.13c.97,1,1.94,1.85,2.93,2.58,1.02.7,2.04,1.31,3.06,1.87,1.01.59,2.09,1.05,3.15,1.58,1.07.51,2.12,1.09,3.27,1.66.36.84,1.05,1.69,1.96,2.55.91.85,2.07,1.65,3.27,2.48,1.19.86,2.53,1.58,3.77,2.4,1.23.83,2.45,1.57,3.47,2.4-.55-.64.74-1.16,1.61-.91.89.9,3.48.28,2.62,1.68l-.37-.2c.16,1.79,2.58,2.49,4.37,3.2l1.08-1.85c.87,1.16,2.1,2.02,3.51,2.55,1.41.54,2.92.96,4.42,1.19,1.49.24,2.89.5,4.06.82,1.17.31,2.1.79,2.62,1.61,1.29-.22,2.76.05,4.03-.27l-.26,1.1c1.63.44,2.86.78,4.21.96.67.11,1.38.2,2.17.28.4.04.82.07,1.27.11.45,0,.94.02,1.46.03l-.92.74c2.37.24,3.21-3,5.31-2.97l.57,1.71c2.03.04,4.07.48,6.12.57,1.03.06,2.05.09,3.07-.04,1.01-.15,2.01-.42,2.98-.88-.05.25-.12.75-.78.87,1.91,0,7.58.32,6.55-1.88.27,1.54,4.18-.53,6.16-1.6l-.11,1.17c1.51-1.81,1.47-2.2,3.85-3.15.62,0,.74.74-.12.65,2.1.07,1.24-1.43,3.74-1.51l-.68.93c2.02-.5,1.77-.78,2.59-1.94,1.08-.84,3.77-.97,4.42-.14.05-.68.81-1.86,2.04-2.03.29.29-.03.68-.2.86.88-.14,1.59-.41,2.19-.72.6-.33,1.09-.73,1.56-1.09.93-.74,1.75-1.35,3.06-1.37.21.31.42.4.65.41-2.5,1.17-4.58,1.99-4.41,1.84.4.95,2.54.18,1.47,2.22.68-.73,1.56-1.8,2.52-2.74.95-.97,1.97-1.85,3.06-2.13.14.04.28.08.42.18l-.15.21c.5-.14.86-.43,1.16-.78.69-.2,1.14-.31,1.73-.64.64.6,2.5-.87,3.47-1.46-.67-.91.66-1.54-.98-1.59.19-.03-.1.23-.71.66-.13.11-.29.22-.35.34,0-.04,0-.08.02-.12-.62.39-1.43.89-2.36,1.44.48-.94,1.02-1.8,2.41-1.88.12-.9.24-1.88.35-2.36,2.09.54,5.03-.36,5.9.16,1.22-1.25,2.82-2.49,4.07-3.89.64-.69,1.22-1.38,1.65-2.09.41-.73.68-1.47.73-2.22.54-.83,1.23-.26,1.72-.25-.28.52-.8.93-.83,1.36.54-.85,1.62-1.78,2.39-2.78.78-.98,1.35-1.92,1-2.6,2.2-1.2,0,1.93,2.18-.58v.64c1.56-.78,2.65-1.83,3.49-3,.79-1.21,1.35-2.54,1.92-3.85.55-1.33,1.06-2.69,1.9-3.92.84-1.23,1.86-2.45,3.55-3.49-.44.3-.66.46-.92.4.36-.37.72-.75,1.06-1.15.33-.41.64-.82.95-1.24.61-.85,1.2-1.72,1.75-2.61,1.01-1.85,2.03-3.71,2.86-5.66,1.82-3.83,3.27-7.72,5.74-11.16,1.15-2.06.34-2.61.11-4.16l1.31-.11c-.19-.91-.44-1.82-.66-2.71-.01-.88.26-1.62.66-2.32.39-.7.88-1.37,1.37-2.07.48-.7.95-1.45,1.24-2.32.27-.87.31-1.86.03-3.01l-.9.41c.21-.75.32-1.97.45-2.96.1-.99.28-1.75.72-1.56-.13-.18-.77-.61-.28-1.16l.63.03-.3-1.95-.4-1.94c.66-2.9,2.51.67,2.87-3.7-.2-1.66-1.72-4.64-2.16-4.03-.05.64-.43,1.64-1.07,1.67l-.29-1.44c-1.86-.29-3.74-1.29-5.12,2.03l1.08,2.39-.96.7c.04-.65.04-1.31.03-1.97-.86,1.08-.18,1.8.28,2.64-.49.16-.85.46-1.07.9.53.8,1.07,1.62,1.59,2.45-.76.2-1.32-1.16-1.9.31.68,1.16,1.76-.85,2.07.99-.98,1.03-1.62.6-1.07,2.01-.5.12-.77-.2-.91-.74.46,1.24-.21,3.08.65,3.84-.62.49-.72,1.47-.89,2.28-.2.81-.46,1.43-1.31,1.19.33.44.89,2.31.71,3.39-1.53-2.42-1.2,3.85-3.25,2.71.74.96.51,2.26.15,3.66-.19.7-.38,1.43-.57,2.15-.2.71-.34,1.43-.33,2.12-.09-.19-.27-.56-.09-.74-.68,1.29-1.36,1.46-2.03,2.17,1.37.77.76,2.98,1.13,4.52-2.1.98-1.22-1.77-2.77-1.87.59.22.58,1.06.53,1.82-.06.75-.12,1.44.49,1.41-1.46.79-.94.84-2.41.86,1.62,1.12-.26,1.28.22,2.82-1.82,1.23-1.85-.48-2.4,1.68-1.02.57-.68-1.42-.68-1.42ZM1710.78,181.77s-.01-.02-.01-.02c.39-.23.72-.42.93-.55-.19.12-.45.28-.92.57ZM1706.86,183.71c.5-.18,1.11-.44,1.75-.75.3.28.34.72-.08.88.11-.33-.94-.11-1.67-.14ZM1719.01,186.16c-.57.51-.9.45-1.1.3.3-.19.64-.43,1.07-.77,0-.05.01-.11,0-.16.05.22.08.43.03.63Z"/>
        <path d="M1719.41,184.22c.08-.08.11-.14.22-.23-.18,0-.35,0-.51,0-.02.15-.03.3-.05.43.11-.07.23-.15.34-.21Z"/>
        <path d="M1725.06,21.58l-.06-.08c.04.08.07.16.07.25-.02-.08,0-.11,0-.17Z"/>
        <polygon points="1648.33 187.58 1648.27 187.85 1648.69 187.7 1648.33 187.58"/>
        <path d="M1740.46,41.31c-.05.1-.07.24-.03.43.05-.06.04-.23.03-.43Z"/>
        <path d="M1746.41,49.94l.46,1.46c-.15-.66-.31-1.11-.46-1.46Z"/>
        <path d="M1749.98,57.14c.22,0,.37-.04.5-.08,0,0,0-.01,0-.02l-.5.1Z"/>
        <path d="M1642.07,13.28c-.1.03-.2.08-.28.13-.61.42-.18.18.28-.13Z"/>
        <path d="M1679.27,7.34c-.43.15-.85.3-1.28.38.67.16,1.18.26,1.28-.38Z"/>
        <path d="M1607.32,35.04s0,0-.01-.02c-.06.06-.12.11-.18.18l.19-.16Z"/>
        <path d="M1676.23,7.56c.66.27,1.23.27,1.77.15-.55-.12-1.19-.28-1.77-.15Z"/>
        <path d="M1759.54,90.15v.39c.07-.01.14,0,.19.03l-.19-.41Z"/>
        <path d="M1759.73,90.56c.06.14.11.27.17.41-.01-.2-.03-.36-.17-.41Z"/>
        <path d="M1760.25,91.84l-.35-.87c.02.31.01.7.35.87Z"/>
        <path d="M1758.31,79.65l-.43-.03c.1.04.24.06.43.03Z"/>
        <path d="M1757.45,76.55c.13.76-.4,2.08.1,3.05l.34.02c-.71-.34.45-2.54-.44-3.07Z"/>
        <path d="M1757.72,61.9c.29.91.51,1.84.76,2.75.22-.62.52-1.45,1.1-.28-.13-3.84-.61,1.04-1.86-2.48Z"/>
        <path d="M1754.45,53.66c.88,1.27.55-.31.8-.36-.82-.67-1.03-.82-.8.36Z"/>
        <path d="M1708.28,10.89l.56-.87c-1.15-.36-.17.36-.56.87Z"/>
        <path d="M1695.28,11.68c.29.31.58.59.85.92l.77-.73c-.54-.08-1.08-.15-1.63-.19Z"/>
        <polygon points="1690.24 2.84 1690.78 2.82 1688.74 2.73 1690.24 2.84"/>
        <path d="M1591.88,37.1l1.2.52c.35-.75-.63-1.8-1.2-.52Z"/>
        <path d="M1572.82,79.53c-.75.36-1.38,1.59-.91,2.5.27-1.02.93-1.95.91-2.5Z"/>
        <path d="M1633.96,193.84l-1.04.04c.61.11,1.2.24,1.82.31-.26-.11-.52-.22-.77-.35Z"/>
      </g>
    </g>
    <g>
      <polyline points="1721.64 21.21 1668.58 100.02 1706.98 186.94" style="fill: #ffcb00;"/>
      <g>
        <path d="M1711.34,184.77c.05.29.77-.14.93-.17-.36-.35-1.12.27-.93.17Z"/>
        <polygon points="1707.73 181.3 1708.08 181.24 1707.03 180.95 1707.73 181.3"/>
        <path d="M1705.99,177.33c-1.14.95.84,1.34.69,2.25l-.25.25,1.19-.15c-.55-.78-1.73-1.59-1.64-2.36Z"/>
        <path d="M1707.89,173.97c-.45.35-.64-.26.06.56.03-.07.06-.1.09-.15-.05-.08-.1-.2-.15-.42Z"/>
        <path d="M1708.03,174.39c.22.4.31-.46,0,0h0Z"/>
        <path d="M1706.89,172.59l.7.35c.25-.25.1-.77.4-.68-.5-.45-.74-.21-1.1.33Z"/>
        <path d="M1705.71,172.49l.32.2c.1-.11.11-.2-.32-.2Z"/>
        <path d="M1706.7,173.12l-.67-.42c-.18.17-.6.37.27.21-.41.12.02.08.4.21Z"/>
        <path d="M1706.65,173.55c-.15.43-.15.91-.85.56.64.97,1.49.41.85-.56Z"/>
        <path d="M1704.55,177.73l-.2.58.6.16c-.3-.08,0-.95-.39-.74Z"/>
        <path d="M1706.06,168.87c-.29.09-.66.51-1,.71l.5.27c.1-.29.1-.77.5-.98Z"/>
        <path d="M1705.06,169.58l-.75-.4c.18.57.45.57.75.4Z"/>
        <polygon points="1704.22 173.03 1705.66 173.59 1704.12 172.85 1704.22 173.03"/>
        <polygon points="1705.07 166.54 1705.86 166.6 1704.62 166.41 1705.07 166.54"/>
        <path d="M1704.27,165.05c.64.02.75-.75,1.19-.62-.28-.38-.9-.53-1.45-.67.38.24.48.63.25,1.29Z"/>
        <path d="M1703.18,163.48c.2.11.51.19.84.27-.2-.13-.46-.23-.84-.27Z"/>
        <path d="M1703.99,168.09c.15-.12.55-.41.58-.83l-.68.58c.03.07.06.16.09.24Z"/>
        <path d="M1703.88,167.86l.02-.02c-.09-.27-.16-.46-.18-.54.02.07.07.24.16.55Z"/>
        <path d="M1704.02,168.15s-.01-.04-.02-.06c-.07.06-.09.08.02.06Z"/>
        <path d="M1704.22,171.13c-.59-.16-1.39-.7-1.74.31.65.02.85-.56,1.74-.31Z"/>
        <path d="M1703.17,168.88l.11.72c.2-.1.45-.35.75-.27l-.85-.45Z"/>
        <polygon points="1702.78 168.67 1703.17 168.88 1703.13 168.61 1702.78 168.67"/>
        <path d="M1702.94,164.91c-.46-.13-.63-.42-.83-.74,0,.44.09.86.26,1.22.27-.06.78-.09.58-.48Z"/>
        <path d="M1703.33,166.37s-.05-.03-.07-.04c-.05.07-.06.11.07.04Z"/>
        <path d="M1700.61,160.77s-.08.08-.12.12l.14-.05-.02-.07Z"/>
        <path d="M1702.24,165.51c-.03.34.24.43.55.48-.17-.17-.32-.37-.43-.6-.12.03-.2.05-.12.13Z"/>
        <path d="M1702.4,162.69c-.1.22-.17.44-.22.67.19-.25.44-.71.22-.67Z"/>
        <path d="M1703.43,166.14s.04.01.05.03c.13-.16.05-.12-.05-.03Z"/>
        <path d="M1703.43,166.14c-.18-.09-.42-.12-.64-.16.14.14.29.26.46.35.04-.06.11-.13.18-.19Z"/>
        <path d="M1695.14,161.96c.75-.27,1.74.16,1.24,1.13.82.38,3.02-1.08,4.12-2.21-.32.12-.62.25-1.33-.2-.3.4-.3,1.82-1.19,1.58-.75-.68-.05-.81.15-1.38-.75.75-1.79-.49-3.04.28l.79.53c-.2.1-.65-.02-.75.27Z"/>
        <path d="M1700.96,162.14l.21.22c0-.36.19-.7.58-1.34-.55-.28-.86-.25-1.11-.18l.47,1.34-.15-.04Z"/>
        <path d="M1701.69,163.54c-.88.14-1.49-.34-2.18.42.39.75.9.25,1.44.56-.74-1.16.6.16.65-.93.24.19.38.39.5.58,0-.27.02-.53.08-.8-.01.02-.02.03-.04.05h0s-.01,0-.01,0c-.07.1-.13.14-.1.06-.01,0-.02-.01-.03-.02-.11.04-.22.06-.32.08,0-.43.18-.15.32-.08.04-.01.08-.02.12-.04h0s-.98-1.06-.98-1.06c0,.31.18.63.52,1.18Z"/>
        <path d="M1700.49,171.53c.05-.07.11-.09.17-.12-.13-.04-.21-.04-.17.12Z"/>
        <path d="M1700.74,170.81c.15.04.5-.02.55.31-.12.36-.38.17-.63.29.29.08.84.37.98-.35l-.15-.04c.05-.62.75-1.7.9-1.66-.64.46-1.09.81-1.64,1.45Z"/>
        <path d="M1701,167.22l-.84-.87-.45.83.4-.21c.1.66.55.31.9.24Z"/>
        <polygon points="1700.95 160.48 1701.85 160.25 1700.41 160.17 1700.95 160.48"/>
        <polygon points="1700.26 159.18 1701 158.91 1700.41 158.75 1700.26 159.18"/>
        <path d="M1673.67,83.96v-.4c-.03.17-.03.3,0,.4Z"/>
        <path d="M1672.28,85.93l.29.27c-.12-.21-.22-.34-.29-.27Z"/>
        <path d="M1685.57,126.14c.48-.74,1.31-1.7.52-1.29l-.73.49c.28.25.3.52.21.8Z"/>
        <path d="M1670.82,105.59c-.06.08-.12.16-.18.24.32-.01.62-.02.89-.04-.22-.06-.46-.13-.71-.2Z"/>
        <path d="M1667.4,106.72l.25-.81c-.12.21-.21.47-.25.81Z"/>
        <path d="M1680.26,72.53l-.52-.82c-.34.51.18.53.52.82Z"/>
        <path d="M1693.87,145.52c.14-.52.14-.88.06-1.17-.25.66-.77,1.34-.06,1.17Z"/>
        <path d="M1680.78,89.89c-.02-.26-.11-.43-.28-.53,0,.26.08.45.28.53Z"/>
        <path d="M1693.44,143.25c-.05.1-.06.19-.1.28.26.22.49.46.59.82.19-.49.23-.97-.49-1.1Z"/>
        <path d="M1707.51,33.33c.05,0,.09-.03.15-.03-.09-.07-.12-.04-.15.03Z"/>
        <path d="M1722.54,26.69c-.03.14-.16.33-.26.51.11-.05.2-.2.26-.51Z"/>
        <path d="M1698.21,153.61c.18.26.11,0,0,0h0Z"/>
        <path d="M1695.69,156.38c-.12-.02-.25-.02-.44.06.2-.06.34-.07.44-.06Z"/>
        <path d="M1687.24,142.58v-.03c-.13.15-.1.13,0,.03Z"/>
        <path d="M1698.04,154.2c.05-.15.08-.31.07-.47-.04.09-.06.23-.07.47Z"/>
        <path d="M1698.39,153.97c0,.11.02.2.03.28.15-.02.22-.09-.03-.28Z"/>
        <path d="M1697.99,153.23c.08.16.11.33.12.5.03-.08.06-.12.1-.12-.05-.08-.12-.19-.22-.38Z"/>
        <path d="M1695.15,55.85s.06-.01.11,0c-.12-.46-.15-.32-.11,0Z"/>
        <path d="M1674.04,122.35s.04,0,.05.02c0-.02,0-.04,0-.05l-.06.04Z"/>
        <path d="M1673,121.59c1.18,0,1.17.3,1.11.73l2.14-1.35-3.25.62Z"/>
        <path d="M1676.68,79.04l-1.09.22c-.53-1.51.22-1.83-1.11-1.83,2.19,1.61-1.48,2.69.71,4.3l-.76.11c.1-.11-.01-.22.09-.32-1.64.11,1.21,1.72.16,2.58-.43.26-.93.3-1.02-.13v1.21c-.21.21-.57-.11-.36-.32l-.68,1.4-.06-.05c.23.42.5,1.2.6,1.56-.54.11-.13-.32-.47-.43l.07,1.08c-.78-.1-.95-1.07-.54-1.51-2.69-.85.17.97-2.1,1.51l.16-.86c-1.57-.43-1.46.4-2.76.62.54.1,3.03-.16,3.07.99-.32.1-.59.33-.41,1.05-.8-.54-.88,0-1.17.54l-1.04-.75c-.06.75.51,1.07.77,1.72-.52.54-1.42.11-2.21-.21-.83.86,1.77.21,1.19,1.5-.24.13-.41.29-.54.47-.06.09-.12.18-.16.29-.04.09-.14.3-.2.46-.26.68-.38,1.44-.51,2.31-1.01.71-.65-.44-1.21-.25.14.4.3.77.47,1.13-.15.18-.43.03-.57-.04-.03.76,1.26.42,1,1.42.59.23.02.5-.78.95-.32.6-.62,1.66.65,2.32-.23.37-.89-.07-1.36.08.98.93,1.34,1.26,1.73,1.56.38.28.8.54,1.76.95-.04.26-.1.47-.17.66l-.19.61c.59-1.03,2-.67,3.17-.33.32-.42.61-.77.73-.98l1.14.87c-.13.22-.58.29-1.16.31.13.04.26.07.37.09-.25.6-1.02.69-1.8.68.18-.24.36-.49.54-.73-.84.03-1.74.11-2.4.47.17.02.35.11.48.24-.23.01-.42.04-.52.13-.11.09.21.1.59.15l-1.19.84.55-.17-.15,1.86c1.79.49,4.13.57,5.43,2.04-1.14,0-1.6.6-2.75,1.08.99-1-1.09-1.1-1.24-2.09.08.52-.51.65-.75.62l1.79,1.09c-.94.37-.55.64-.75,1.22,1.69-1.12,1.74.64,2.58,1.03-.6.31-1.29.44-1.49-.41-1,1.47,2.64.16,1.85,1.53-.1-.18-.05-.33-.4-.27.74.2.79,1.49.14,1.47l-.1-.19c.34,1.36,1.69,3.87,3.33,3.37-.2.1-1.95.66-2.3.72l6.24-.05c-1.42.39-4.27,2.56-5.49,1.84-.06.39-.11.86.64,1.29.1-.29,1.71-1.37,1.95-1.14-1.15,1.43-.56.89-1.41,2.4.15-.44,2.4-1.02,2.55-.5-.35.06-2.05.95-2.35.87l2.59.31c-.5-.14-1.77.72-2.23,1.25.35-.3.43,1.07.77,1.3l.25-.73c.3,1.51,3.49.08,3.98,1.48-.5.02-2.8.75-2.75,1.55,1.19-.15,5.69-.83,7.03.01l-.5.5,1.09.62c-1.84.13-5.89-.01-7.58-.32-.25.72-.65.46-.25,1.2-.44.52-1.04-.04-1.17-.25l.43,1.95c1.2-.62,1.84.82,2.83.3l-2.13-1.38c1.19-.62,3.99-.42,4.33.95-.35.54-2.3.73-2.69.93.5-.02,1.34.85,1.09,1.1l-.9-.25c-.15.91,2.14.43,1.34,1.8.05.33-1.2,1.57-.45,1.3,1.19-1.1,5.49-3.11,6.69-3.26-.05.14-.66,2.13-1.21,2.77-.89.97-2.94.43-3.71,1.26.34-.13.88-.05,1.06,0-.15.43-1.1.33-.65.93,1.3-.44.49,1.41,1.19-.15.65.5.05.81.44,1.55.7-.6,3.05-.52,3.69-.02-.33.1-.68.43-.84.59.48,1.39.23,2.36.77,3.61-.25.25-.35,1.01-1,.99.3.08.8.06,1,.43-.75,1.22-.55-.78-1.59.36.75-.27,1.44.55,2.14.9,1.04-.66-.35-1.36-1.04-1.71,1.54-.68,3.58-.44,4.87.55.84.87-.8.89-.5.97.59,2.07,3.43.47,3.03,2.58-.7,1.08-1.94.89-2.59,1.35-.75-.68.05-1.57-.24-2.13l-.15.91c-.45-.12-.94-.58-.79-1.01-.65.93,1.28,3.37,1.13,5.23.45.12.99.43,1.29.04l-.35-.41c.6-.79,1.49.41,1.6-.36.84.39,2.03.72,1.98,1.82l-1.05.66c.32-.16.41-.88-.04-.98.66.15-.91,2.05.74,1.81l.5-.97c.85.39,2.39.66,2.39,1.61.95-.85-.21-.13.84-1.27-1.4,1.2-.83-2.07-2.18-.53,1.25-1.25.19-1.29,1.14-2.61-.36.19-.59.58-.7-.17-.12.02-.29,0-.39,0,0-.02,0-.03,0-.06l-.03.06c-.07,0-.08,0,0,.02-.09.23-.23.45-.41.59-1,.04-1.44-1.03-2.04-1.2,0-.47.5-.02.8-.41l-.89-.25c.8-.42.9-1.66,1.79-.94l-.33-.86c.24-.7.12-1.46-.41-1.73,0-.48-1.35-.6-.56-.54l-1.09-1.09.2-.1c-.47-1.35-2.54-2.08-1.72-4.22-.4-.35-.85-.69-.95-1.52l.65-.46c-.5-.45-.04-2-.88-1.92,1.64-1.45-.79-2.91-.89-4.05l-.94.37c-.25-.7-.8-1.24-1.55-1.92l-.8.41c-1-.43-.24-2.13-.84-3.25.35-.06.4.27.3.56,1.24-2.2-2.63-2.31-1.83-4.16-.44-.18-.43-.45-.32-.76.01.03.04.05.08.06,0-.04-.02-.08-.05-.13.08-.2.18-.41.25-.63-.14.22-.25.42-.28.56-.12-.23-.39-.55-.75-.82l.81-.54s-.03-.05-.06-.07c.17-.49-.54-.1-1.12.38-.22-.12-.47-.2-.74-.24,1.3-.91-.89-.72.45-1.78-.85.09-1.35-1.55-2.99-1.05.2-.1.25-.25.34-.06,0-.48,0-.95-.59-1.12l1.05-.66-1.89-.2c.45-.83.75-1.22,1.84-1.08-1.88-.68-.95-.81-2.74-1.3l.75-.27c-.2-.37-1.44-.56-.94-1.05,1-1.47-1.69-4.34-1.39-7.11-1.94,1.37.5-1.45-1.19-.81.45-.35.6-.78,1.19-.62-.99-.91.05-2.05-1.69-2.21.45-.35.85-.09,1.09-.33-.15-.04-.6-.16-.35-.41.25-.25.5-.02.79.06-.59-1.11-2.2-.54-3.69.02.43-.89.21-1.14-.94-1.14.39-.41.74-.97,1.22-.33-.05-.2-.17-.95-.37-1.45-.12-.32-.39-.57-1.03-.43.28-.16-.06-.38-.25-.43-.19-.61-.08-.65-.47-1.23l-.16.15c-.65-.11-.93-.24-1.02-.36.05-.2.7-.36.78-.69l.16.05c.94-.4.85-.5.82-.66-.05-.14-.02-.34.86-.51l-.88-.41c-1.74-1.11,1.79-.48,1.71-1.77h-.66c-.27-.86,3.2.27,3.73-.05.22,0,.13.32.15.54,1.83-.54-.94-.86-.57-1.93.68.21,1.28,1.18,1.8.64.66,0-.63-3.01,1.01-3.12-.56-.11-1.11-.22-1.15-.86.28-.75,2.82-.65,1.85-2.16.17,0,.31.04.42.11-.02-.73.5-2.01-.04-2.8,3.06,1.39.74-3.98,3.27-2.26l.89-1.62.23.21c.82-.86.45-1.62.07-2.37.32-.11.45.21.57.32,1.47-1.08,1.46-1.29,1-3.34l.91.43c-.26-.65,2.68-1.19,2.66-3.23.08.08.22.21.27.4.09-2.22,4.81-2.23,2.21-4.82l-.04-1.53c-1.14,1.19-1.17-1.07-2.03-.86.18-.65,1.82-.76,1.54,0h-.22c1.4,1.29,1.68-1.29,2.71-.54,1.7-2.69,4.3-4.68,6.03-7.11l-1.41-.53.65-.82c.44-.04,1.15.34.69.92.91.14.12-1.42-.13-1.62,1.3-.87,1.1,1.42,1.38,1.07l.25-.56-.22.02c-.22-.74-.72-1.13-.17-1.83.56-.3.91.26,1.08.11.09.06.17.02.22-.26l.84-1.02-1.25-.21c-.15-.8.74-.99-.68-1.22,2.17.39,3.33-3.65,4.15-3.75-.24-1.14.22-1.8.86-2.57-.34.07-1.5-.53-.89-1.15,2.05,1.76,1.84-.65,3.83-.15-1.41-.2,1.1-2.2-.95-2.41.58-.47.86.52,1.68.43.09-1.99,2.66-2.74,3.54-4.68-.27-.22-.92-.23-1.1-.9l2.08.06c.09-.44-1.47-1.45-.03-1.4-.31-.08-.77-.19-.7-.49,3.73-2.46,3.54-7.78,8.55-9.45-.88.09-.73-.26-.51-.63-.29.14-.72-.49-1.14-.71l2.08-.72c-.92-1,.98-1.61.03-2.47l-.12.59c-.83-1.45-3.33-1-4.86-2.16.95,1.63-3.3.41-2.05,2.89-.49.03-.37-.56-.83-.67.49.74.4,1.18-.34,1.62l-.12-.19c-1.04,1.91-2.23,2.22-4.03,3.94l.89.38c-.4.36-.7.29-1.04.36.86,1.3.89-1.17,1.9.17-1.99-.5-2.08,3.04-4.16,2.2-.46.66,1.04.42.58,1.08l-.61-.15.52.59c-.4.37-1.16.17-1.59-.09.12-.07.09-.38.13-.52-.96.18-.88,1.73-1.2,1.8l.73-.44c-.76,2.13-2.9,3.91-3.09,6.34l.46.12c-.22,1.8-1.13.8-1.8,2.49l-.05-.11c.17.54.09,1.06-.22,1.44-.18-.66-1.32.13-1.47-.68-.24,1.95.09,1.11.83,3l-.76-.19c.34.7.61.93.28,1.77-.12-.96-1.25-.16-1.5-1.31-2.38.64-.18,3.21-2.63,2.59,1.23,1.86,1.84-.7,1.94-.06.78.04.88,1.44.38,1.81-.37.47-2.74-.63-3.55.63.09-.12-.03-.21.06-.33-.75.17-.02,1.31-1.11,1.4.81,1.01-.56.7.69,1.68l.46-1.34c-.09.88,1.04,2.52-.42,3.08-.21-.26-.34-.81-.39-1.16-.6.05-.15.77-.76.83-1.25-.98.64-1.58.11-2.94-.78-.04.07,1.95-1.12.64,1.47,1.72-1.05,1.07-.23,2.84l-.75-.59c.03.22.22.74.04.97l-.72-1.13c.41,1.27-1.64.8-1.61,1.77.89-1.38,1.15.33,2.12.14-.08,2.39-2.71-.42-3.6,1.72.06-.33,1.12-.64,1.21,0-.4.25-1.02.52-1.59.46-.68,1.36.94.35,1.06,1.21-1.25-.22-.02.88-.08,1.63l-.8-.53c-1.47,1.08,1.41,1.5-.07,2.36l-.75-1.29-.16.86-.82-.75c.19,1.18-.14,1.29-.88,1.83.68.21,1.39,1.07.99,1.72-.77.11-.6-.75-1.09.22-.36-.54-.84-1.18.15-1.08-.23-.22-.37-.54-.6-.75-.86.1-.91,1.08-1.12,1.41.11-.1.26-.22.42-.22l.24,2.04c-.44,0-.57-.32-.7-.64-.09.32.16.75-.04,1.18-.58-.54-1.27-.97-1.21-1.72l-.11,1.72c-.34-.11-1.2.11-1.34-.21-.84.43.13,2.53-.98,3.1.09.13.15.31.11.56-.72.75-2.03.97-1.82,2.58l-1.55-.21c-.27.97,1.99.21,1.54,1.83-.26,1.18-1.23-.32-1.77-.21.28.86.93,2.47-.6,2.69-.03-.43.29-.54.39-.86ZM1670.63,89.15c-.04-.3-.3-1.03.26-.85.77.83.22.7-.26.85ZM1669.83,107.92c-.36-.03-.32-.33-.11-.75.16.16.22.4.11.75ZM1696.11,150.79s-.03,0-.05,0c.14-.62.08-.39.05,0ZM1696.15,151.93c.17.04.29-.02.39-.11-.25.03-.36-.18-.41-.45-.2.17-.31.37.02.57ZM1702.4,56.71l-.32.03c.03-.54.16-.29.32-.03Z"/>
        <path d="M1667.8,106.6c.12-.12.28-.21.44-.3-.18-.02-.36.06-.44.3Z"/>
        <path d="M1680.35,72.68s.02-.02.03-.02c-.04-.05-.08-.09-.12-.13l.1.15Z"/>
        <path d="M1682.06,140.27c.04-.25.15-.44.29-.58-.22.08-.36.26-.29.58Z"/>
        <path d="M1699.92,156.39l-.5-.52c.18.28.03.47-.04.69.2-.1.45-.35.55-.17Z"/>
        <path d="M1696.83,164.17c.15.04.1.19.25.23l.4-.21c-.2-.37-.65-.5-.64-.02Z"/>
        <path d="M1697.24,158.26c-.72.38-.3.65.03,1.03-.01-.02-.03-.05-.03-.08,1.1-.33.55-.64,0-.95Z"/>
        <path d="M1697.34,159.37c.09.12.17.25.2.39.44-.13.02-.2-.2-.39Z"/>
        <path d="M1697.19,152.94c-.1.29,1.01-.29.76-.04,1.05-.19-1.75-.87-.76.04Z"/>
        <polygon points="1694.94 159.69 1695.79 159.13 1694.95 159.21 1694.94 159.69"/>
        <path d="M1694.11,155.97l.05.8c.15-.08.28-.03.39.05-.16-.44-.18-.99-.45-.85Z"/>
        <path d="M1694.55,156.82c.08.23.19.43.4.49-.06-.12-.21-.36-.4-.49Z"/>
        <polygon points="1694.25 158.86 1694.35 158.57 1694.2 158.05 1694.25 158.86"/>
        <path d="M1690.99,148.44l-.6-.64c-.35.06-.45.35-.2.58.3.08.54.31.8.06Z"/>
        <path d="M1689.49,151.84c.1-.29.3-.39.55-.64l-1.15.48.6.16Z"/>
        <path d="M1688.25,149.75c-.35.06-1.39-.7-.89.23.35-.06.94.58.89-.23Z"/>
        <polygon points="1684.66 137.72 1684.76 137.91 1686.61 137.06 1684.66 137.72"/>
        <path d="M1675.76,129.65c-.05,1.09,1.24-.3,1.04.76.53.02.16-.86.64-.81-.7-.34-.57-.74-1.68.05Z"/>
        <path d="M1677.45,129.6c.11.05.24.11.41.15-.19-.11-.31-.14-.41-.15Z"/>
        <polygon points="1724.73 25.38 1725.44 25.1 1724.64 25.05 1724.73 25.38"/>
        <path d="M1724.15,23.54l1.16.6-.76-.97c-.03.15-.09.44-.4.37Z"/>
        <path d="M1667.48,89.14l.23.21c.33.11.44,0,.65-.22h-.88Z"/>
        <polygon points="1673.06 82.59 1672.95 82.7 1674.08 83.13 1673.06 82.59"/>
        <path d="M1675.82,75.81c-.2.22-.18.65-.38.86.18-.65,1.64-.11.38-.86Z"/>
      </g>
    </g>
    <g>
      <line x1="1752.93" y1="64.83" x2="1668.58" y2="100.02" style="fill: #f8a78b;"/>
      <g>
        <path d="M1669.62,102.23c-.14.02.07.39.08.46.17-.17-.12-.56-.08-.46Z"/>
        <polygon points="1671.31 100.49 1671.34 100.67 1671.48 100.15 1671.31 100.49"/>
        <path d="M1673.23,99.7c-.46-.58-.65.4-1.09.31l-.12-.13.07.59c.38-.26.78-.83,1.14-.77Z"/>
        <path d="M1674.85,100.7c-.17-.23.13-.31-.27.02.03.02.05.03.07.05.04-.02.1-.04.2-.07Z"/>
        <path d="M1674.65,100.76c-.19.1.22.16,0,0h0Z"/>
        <path d="M1675.52,100.23l-.17.34c.12.13.37.06.33.21.22-.24.1-.37-.16-.55Z"/>
        <path d="M1675.58,99.64l-.1.15c.05.05.1.06.1-.15Z"/>
        <path d="M1675.27,100.12l.21-.33c-.08-.09-.18-.3-.1.13-.06-.21-.04,0-.1.2Z"/>
        <path d="M1675.06,100.09c-.21-.08-.44-.09-.27-.43-.47.3-.2.74.27.43Z"/>
        <path d="M1673.05,98.98l-.28-.11-.08.29c.04-.15.46.02.36-.18Z"/>
        <path d="M1677.33,99.87c-.04-.15-.25-.34-.34-.51l-.13.24c.14.05.37.06.47.26Z"/>
        <path d="M1676.99,99.37l.19-.36c-.28.08-.28.22-.19.36Z"/>
        <polygon points="1675.32 98.89 1675.05 99.6 1675.41 98.84 1675.32 98.89"/>
        <polygon points="1678.46 99.42 1678.43 99.82 1678.52 99.2 1678.46 99.42"/>
        <path d="M1679.18,99.05c-.01.32.36.38.3.6.18-.13.26-.44.33-.71-.12.18-.31.23-.63.1Z"/>
        <path d="M1679.95,98.54c-.06.1-.09.25-.14.41.06-.1.11-.22.14-.41Z"/>
        <path d="M1677.71,98.86c.06.08.19.28.4.3l-.28-.35s-.08.03-.12.04Z"/>
        <path d="M1677.82,98.81h0c.13-.03.22-.06.26-.07-.03,0-.11.03-.27.07Z"/>
        <path d="M1677.68,98.87s.02,0,.03-.01c-.03-.03-.04-.04-.03.01Z"/>
        <path d="M1676.24,98.92c.08-.29.34-.68-.15-.87-.01.32.27.43.15.87Z"/>
        <path d="M1677.33,98.44l-.35.04c.05.1.17.23.13.38l.22-.42Z"/>
        <polygon points="1677.43 98.25 1677.33 98.44 1677.46 98.43 1677.43 98.25"/>
        <path d="M1679.26,98.39c.06-.23.21-.3.36-.4-.21,0-.41.03-.59.11.03.13.04.39.23.29Z"/>
        <path d="M1678.54,98.56s.02-.02.02-.04c-.03-.03-.05-.03-.02.04Z"/>
        <path d="M1681.26,97.31s-.04-.04-.06-.06c0,.02.02.05.02.07h.03Z"/>
        <path d="M1678.97,98.04c-.17-.02-.21.11-.23.26.08-.08.18-.15.29-.2-.01-.06-.03-.1-.06-.06Z"/>
        <path d="M1680.33,98.16c-.1-.05-.21-.09-.32-.12.12.1.34.23.32.12Z"/>
        <path d="M1678.66,98.62s0,.02-.01.03c.08.07.06.03.01-.03Z"/>
        <path d="M1678.66,98.62c.05-.09.06-.21.08-.32-.07.07-.13.14-.17.22.03.02.06.06.09.09Z"/>
        <path d="M1680.71,94.57c.13.38-.08.86-.55.6-.19.4.51,1.52,1.05,2.08-.06-.16-.12-.31.1-.66-.19-.15-.88-.18-.76-.62.33-.36.39-.01.67.1-.36-.39.24-.88-.12-1.51l-.26.39c-.05-.1.01-.32-.13-.38Z"/>
        <path d="M1680.6,97.46l-.11.1c.17,0,.34.11.65.31.14-.27.12-.42.09-.55l-.65.21.02-.07Z"/>
        <path d="M1679.92,97.79c-.07-.44.17-.74-.2-1.09-.36.18-.12.44-.27.71.56-.35-.08.29.45.34-.09.12-.19.18-.28.24.13,0,.26.02.39.05,0,0-.02-.01-.02-.02h0s0,0,0,0c-.05-.04-.07-.07-.03-.05,0,0,0-.01,0-.01-.02-.06-.03-.11-.04-.16.21,0,.07.09.04.16,0,.02,0,.04.02.06,0,0,0,0,0,0l.51-.47c-.15,0-.31.08-.57.24Z"/>
        <path d="M1676.06,97.06s.04.06.06.08c.02-.07.02-.1-.06-.08Z"/>
        <path d="M1676.41,97.2c-.02.07,0,.25-.15.27-.17-.07-.08-.19-.14-.32-.04.14-.18.41.17.49l.02-.07c.3.04.82.4.8.47-.22-.33-.39-.56-.7-.84Z"/>
        <path d="M1678.14,97.39l.42-.4-.4-.24.1.2c-.32.04-.15.27-.12.44Z"/>
        <polygon points="1681.4 97.48 1681.51 97.93 1681.55 97.22 1681.4 97.48"/>
        <polygon points="1682.04 97.16 1682.16 97.53 1682.24 97.24 1682.04 97.16"/>
        <path d="M1717.02,77.24l.1-.17c-.06.06-.09.11-.1.17Z"/>
        <path d="M1715.94,77.66l.05.19c0-.12,0-.2-.05-.19Z"/>
        <path d="M1698.07,90.42c.36.25.82.68.62.28l-.23-.37c-.12.13-.25.14-.39.09Z"/>
        <path d="M1708.06,83.45s-.08-.06-.11-.1c0,.16,0,.31.01.44.03-.11.06-.23.1-.35Z"/>
        <path d="M1707.52,81.73l.39.14c-.1-.06-.23-.11-.39-.14Z"/>
        <path d="M1722.68,74.38v-.48c-.27.11-.06.27,0,.48Z"/>
        <path d="M1688.67,94.22c.25.08.43.08.56.05-.32-.14-.64-.41-.56-.05Z"/>
        <path d="M1718.37,81.67c.06-.11.06-.21.02-.3-.06.11-.09.21-.02.3Z"/>
        <path d="M1689.77,94.04s-.09-.03-.14-.05c-.11.12-.22.23-.4.28.24.1.47.13.54-.23Z"/>
        <path d="M1744.01,65.87s.05.01.07.03c-.02-.06-.04-.05-.07-.03Z"/>
        <path d="M1751.87,67.34c-.05.05-.15.09-.24.14.06,0,.13-.03.24-.14Z"/>
        <path d="M1684.74,96.24c-.13.08,0,.05,0,0h0Z"/>
        <path d="M1683.4,94.93c.01-.06,0-.12-.03-.22.03.1.04.17.03.22Z"/>
        <path d="M1690.11,90.97s0,0,.01,0c-.07-.06-.06-.05-.01,0Z"/>
        <path d="M1684.45,96.14c.07.03.15.04.23.04-.04-.02-.11-.04-.23-.04Z"/>
        <path d="M1684.56,96.32c-.06,0-.1,0-.14.01.01.07.04.11.14-.01Z"/>
        <path d="M1684.92,96.13c-.08.04-.16.05-.24.05.04.02.06.03.06.05.04-.02.09-.06.18-.1Z"/>
        <path d="M1733.11,71.68s.03.01.05.03c.07-.22.02-.17-.05-.03Z"/>
        <path d="M1699.94,84.76s0,.02,0,.03c0,0,.02,0,.03,0l-.02-.03Z"/>
        <path d="M1700.31,84.25c0,.59-.15.58-.35.54l.65,1.09-.29-1.62Z"/>
        <path d="M1719.53,76.06l-.5-.21c.17-.77.57-.69.03-1.06.47,1.27-1.31.7-.83,1.97l-.34-.17c.07-.02.05-.09.12-.11-.7-.41.05,1.05-.61,1.11-.24-.01-.46-.14-.38-.34l-.32.5c-.14.03-.2-.2-.06-.23l-.64.39v-.04c-.03.24-.12.63-.17.81-.25-.11.03-.17-.08-.31l-.25.46c-.29-.26-.11-.71.17-.77-.88-1.1-.18.45-1.25.03l.29-.31c-.53-.61-.7-.24-1.29-.52.19.19,1.28.78.99,1.26-.16-.05-.33-.03-.44.32-.19-.44-.36-.25-.62-.11l-.23-.6c-.22.29-.07.58-.13.92-.35.08-.61-.35-.85-.7-.56.12.67.58.09.95-.53-.04-.73.32-1.11.89-.39-.08-.1-.38-.28-.51l-.07.58c-.07.02-.11-.14-.13-.21-.15.28.23.6-.06.91.18.69-1.13-.64-1.26.28-.18-.12-.1-.38-.23-.6-.4.74-.37.57-.6,1.43l-.59-.21c.5.31.32,1,.15,1.58.2.17.37.32.47.38l-.42.55c-.11-.07-.14-.3-.15-.58-.02.06-.03.13-.04.18-.29-.13-.33-.52-.32-.91.12.09.24.18.35.28-.01-.42-.05-.87-.22-1.2,0,.08-.05.17-.12.24,0-.11-.02-.21-.06-.26-.04-.05-.05.1-.08.29l-.4-.61.08.27-.9-.11c-.24.88-.29,2.04-1.01,2.66,0-.57-.28-.81-.51-1.38.48.51.53-.52,1.01-.58-.25.03-.31-.26-.3-.38l-.54.87c-.18-.47-.31-.28-.59-.39.54.86-.31.85-.51,1.27-.15-.3-.21-.65.2-.73-.71-.52-.09,1.31-.75.89.09-.05.16-.02.13-.19-.1.37-.72.37-.71.05l.09-.04c-.66.15-1.88.77-1.64,1.6-.05-.1-.31-.98-.34-1.15v3.1c-.18-.71-1.22-2.17-.87-2.76-.19-.03-.41-.07-.62.3.14.05.66.87.55.99-.69-.59-.43-.29-1.16-.74.21.08.48,1.21.23,1.27-.03-.17-.46-1.04-.41-1.18l-.16,1.28c.07-.25-.34-.89-.6-1.13.15.18-.52.19-.63.36l.35.14c-.73.12-.05,1.73-.73,1.95,0-.25-.35-1.4-.74-1.39.07.6.39,2.84-.03,3.49l-.24-.26-.3.53c-.05-.92.03-2.93.18-3.76-.35-.14-.22-.33-.58-.15-.25-.23.02-.52.13-.58l-.95.18c.3.6-.4.9-.16,1.4l.67-1.04c.3.6.19,1.99-.47,2.14-.26-.18-.34-1.15-.44-1.35,0,.25-.41.65-.53.52l.12-.44c-.44-.09-.22,1.06-.87.64-.16.02-.76-.62-.63-.24.53.61,1.49,2.78,1.55,3.38-.07-.03-1.03-.37-1.34-.65-.47-.46-.2-1.47-.6-1.86.06.17.02.44,0,.53-.21-.08-.16-.55-.45-.34.21.65-.68.22.07.6-.24.31-.39.01-.75.19.29.36.24,1.52,0,1.83-.05-.17-.21-.35-.28-.43-.67.21-1.14.07-1.75.32-.12-.13-.49-.19-.48-.51-.04.15-.03.39-.21.49-.59-.39.38-.26-.17-.8.13.38-.27.71-.44,1.05.32.53.66-.15.83-.49.33.78.2,1.79-.28,2.41-.42.4-.43-.41-.47-.26-1,.26-.24,1.7-1.26,1.46-.52-.37-.43-.98-.64-1.31.33-.36.76.05,1.03-.08l-.44-.09c.06-.22.28-.46.49-.38-.45-.34-1.63.58-2.53.47-.06.22-.21.49-.02.64l.2-.17c.38.31-.2.73.17.8-.19.41-.36,1-.89.95l-.32-.53c.08.16.43.22.48,0-.08.33-.99-.49-.88.34l.47.26c-.19.41-.33,1.18-.79,1.16.41.49.06-.1.61.44-.58-.71,1-.38.26-1.07.6.64.62.12,1.26.61-.09-.18-.28-.3.08-.35,0-.06,0-.14,0-.19.01,0,.02,0,.03,0,0,0-.02-.01-.03-.01,0-.03,0-.04,0,0-.11-.05-.21-.12-.28-.21-.02-.5.5-.7.59-.99.23,0,0,.25.2.4l.12-.44c.2.4.8.48.45.91l.42-.15c.34.13.71.09.84-.17.23,0,.29-.66.26-.27l.53-.52.05.1c.65-.21,1.01-1.23,2.05-.78.17-.19.34-.41.74-.44l.22.33c.22-.24.97.02.93-.41.7.84,1.41-.34,1.96-.37l-.18-.48c.34-.11.6-.38.93-.74l-.2-.4c.21-.49,1.03-.09,1.57-.36.03.17-.13.19-.27.14,1.06.66,1.13-1.27,2.02-.84.09-.21.22-.21.37-.15-.01,0-.02.02-.03.04.02,0,.04-.01.06-.02.1.04.2.1.3.13-.11-.07-.2-.13-.27-.15.11-.06.27-.18.4-.36l.26.41s.02-.02.03-.03c.24.09.05-.27-.18-.56.06-.11.1-.23.12-.36.44.66.35-.43.86.26-.04-.42.75-.64.52-1.47.05.1.12.13.03.17.23,0,.46.02.54-.28l.32.53.1-.94c.4.24.59.39.52.93.33-.92.39-.46.64-1.34l.13.38c.18-.09.28-.71.51-.45.71.52,2.11-.77,3.45-.57-.66-.99.7.27.39-.58.17.23.38.31.3.6.44-.48.99.06,1.07-.8.17.23.04.42.16.55.02-.07.08-.29.2-.17.12.13,0,.25-.03.39.54-.28.27-1.08,0-1.84.43.23.55.12.55-.45.2.2.47.38.16.61.21-.05,1.34-.14,1.11-.74.12.12.29-.07.31-.16.45-.15.51-.11.92-.35l-.16-.05c-.13-.78.29-.31.6-.54l.02.08c1.01.18.24-.39,1.27-.13l-.23-.42c-.32-.98.93.27,1.23-.28l-.27-.18c.11-.43,1.24,1,1.53,1.02.09.06-.03.17-.08.26.89.29-.16-.62.27-.95.22.28.22.84.57.76.27.19.53-1.41,1.23-1-.2-.2-.4-.4-.25-.68.31-.23,1.32.52,1.31-.37.07.05.11.1.14.16.18-.31.73-.69.71-1.16.88,1.43,1.34-1.43,1.92-.02l.78-.42.04.15c.56-.12.6-.54.65-.95.16.05.13.21.15.29.88-.03.93-.13,1.28-1.09l.26.43c.06-.34,1.4.26,1.93-.59.01.05.04.15,0,.24.62-.89,2.54.43,2.16-1.37l.38-.64c-.77.17-.19-.77-.61-.92.24-.22.94.2.63.43l-.09-.06c.23.92,1.02-.06,1.25.53,1.39-.63,2.97-.73,4.31-1.24l-.43-.61.48-.15c.19.11.38.46.04.57.33.31.42-.55.37-.7.76,0,.08.89.28.83l.25-.16-.09-.05c.1-.37,0-.67.41-.8.31.03.3.36.41.35.02.05.06.06.16-.04l.61-.18-.45-.44c.15-.37.56-.2.04-.69.78.77,2.31-.57,2.67-.38.2-.54.56-.68,1.02-.82-.16-.07-.47-.64-.06-.72.38,1.29.92.25,1.6,1.01-.52-.48,1.02-.6.24-1.25.36-.03.21.45.57.65.56-.79,1.8-.38,2.66-.94-.05-.17-.31-.35-.21-.68l.83.61c.15-.16-.22-1.01.35-.59-.1-.12-.26-.29-.16-.4,2.16.03,3.47-2.21,5.95-1.5-.38-.21-.23-.31-.04-.4-.16-.02-.16-.4-.28-.61l1.03.29c-.11-.67.82-.39.66-1.01l-.2.21c.04-.83-1.1-1.34-1.42-2.24-.04.94-1.45-.76-1.59.62-.21-.12,0-.33-.16-.51,0,.44-.15.6-.56.57v-.11c-.92.49-1.49.29-2.67.49l.26.4c-.26.04-.36-.08-.52-.14.01.77.67-.23.73.6-.68-.76-1.64.67-2.27-.26-.36.14.32.46-.04.61l-.21-.23.06.39c-.26.04-.52-.25-.62-.48.07,0,.13-.13.19-.18-.44-.2-.81.47-.96.4l.41.03c-.87.66-2.2.8-2.91,1.75l.16.18c-.56.68-.67.01-1.38.52v-.06c-.06.27-.23.46-.46.53.1-.32-.57-.31-.42-.69-.61.73-.25.48-.44,1.46l-.26-.29c-.05.38,0,.55-.35.8.2-.43-.47-.42-.27-.96-1.14-.4-.91,1.27-1.75.33.02,1.11.93.23.81.52.31.24-.02.84-.32.85-.27.09-.95-1.02-1.61-.73.07-.02.04-.1.11-.12-.35-.14-.35.53-.82.26.07.64-.41.13-.15.88l.54-.42c-.27.33-.23,1.32-.97,1.15-.02-.17.07-.43.14-.59-.26-.15-.26.28-.53.13-.26-.75.67-.47.81-1.18-.31-.23-.48.82-.62-.05.15,1.12-.71.15-.84,1.1l-.15-.45c-.04.1-.1.37-.24.41v-.67c-.16.64-.88-.13-1.12.28.72-.32.38.46.83.65-.66.96-1-.93-1.92-.3.11-.12.62.05.49.34-.23-.01-.55-.07-.77-.25-.63.37.29.41.12.8-.45-.44-.24.35-.46.65l-.19-.44c-.88.03.19,1.01-.64.95l.03-.74-.29.31-.14-.54c-.23.54-.39.49-.83.51.22.28.29.83-.04.98-.34-.17-.05-.48-.5-.21,0-.32-.04-.72.34-.4-.04-.15-.01-.32-.05-.48-.37-.2-.65.19-.82.27.07-.01.16-.02.23.03l-.44.91c-.18-.12-.15-.29-.12-.46-.12.11-.13.35-.32.48-.1-.38-.27-.75-.04-1.04l-.49.68c-.11-.14-.52-.29-.49-.46-.45-.06-.61,1.08-1.21,1,0,.08-.02.17-.1.26-.49.11-1.08-.17-1.41.55l-.58-.52c-.36.32.76.64.15,1.18-.41.42-.42-.48-.67-.58-.11.43-.27,1.28-.94.94.1-.19.26-.14.38-.25ZM1714.43,78.53c.06-.14.14-.51.33-.28.1.56-.09.35-.33.28ZM1706.93,82.91c.01-.18.16-.15.36-.04-.08.08-.19.1-.36.04ZM1686.11,95.24s0-.02,0-.03c.3.08.19.04,0,.03ZM1685.56,95.24c-.02.08,0,.14.05.2-.01-.13.09-.18.22-.2-.08-.1-.18-.16-.27,0ZM1735.84,74.06l-.14-.08c.15-.21.14-.07.14.08Z"/>
        <path d="M1707.58,81.93c.06.06.1.14.14.22,0-.09-.03-.18-.14-.22Z"/>
        <path d="M1722.68,74.47s.01,0,.02,0c0-.03,0-.06-.02-.09v.09Z"/>
        <path d="M1691.24,88.44c.12.02.21.08.28.15-.04-.11-.12-.18-.28-.15Z"/>
        <path d="M1683.39,97.04l.25-.24c-.14.08-.23,0-.33-.03.05.1.17.23.08.27Z"/>
        <path d="M1679.63,95.37c-.02.07-.09.04-.11.12l.1.2c.18-.09.24-.31.01-.32Z"/>
        <path d="M1682.49,95.67c-.18-.36-.32-.16-.5,0,.01,0,.02-.01.04-.02.16.55.31.28.46.02Z"/>
        <path d="M1681.95,95.7c-.06.04-.12.08-.19.09.06.22.1.01.19-.09Z"/>
        <path d="M1685.07,95.74c-.14-.05.14.51.02.38.09.52.42-.85-.02-.38Z"/>
        <polygon points="1681.81 94.51 1682.08 94.94 1682.04 94.52 1681.81 94.51"/>
        <path d="M1683.61,94.16h-.39c.04.09.01.15-.02.21.21-.07.48-.07.41-.21Z"/>
        <path d="M1683.2,94.36c-.11.04-.21.09-.24.19.06-.03.18-.1.24-.19Z"/>
        <polygon points="1682.21 94.18 1682.35 94.23 1682.6 94.17 1682.21 94.18"/>
        <path d="M1687.26,92.74l.31-.29c-.03-.17-.17-.23-.28-.11-.04.15-.15.27-.03.39Z"/>
        <path d="M1685.62,91.93c.14.05.19.16.31.28l-.23-.58-.08.29Z"/>
        <path d="M1686.64,91.35c-.03-.17.34-.68-.11-.45.03.17-.28.46.11.45Z"/>
        <polygon points="1692.47 89.77 1692.38 89.82 1692.78 90.75 1692.47 89.77"/>
        <path d="M1696.4,85.49c-.53-.04.14.62-.37.51,0,.26.42.1.39.33.16-.34.36-.27-.02-.84Z"/>
        <path d="M1696.42,86.33c-.03.05-.05.12-.07.2.05-.09.07-.15.07-.2Z"/>
        <polygon points="1753.1 67.42 1753.47 67.49 1753.15 67.25 1753.1 67.42"/>
        <path d="M1753.35,66.49l.32.57-.06-.61c-.05.05-.15.16-.26.04Z"/>
        <path d="M1713.15,77.64l.04.15c.11.14.18.12.32.09l-.36-.25Z"/>
        <polygon points="1717.13 76.51 1717.06 76.52 1717.41 77.02 1717.13 76.51"/>
        <path d="M1720.02,74.49c-.14.03-.24.22-.38.25.24-.22.7.41.38-.25Z"/>
      </g>
    </g>
  </g>
</svg>